<?xml version="1.0" encoding="utf-8" ?>
<svg baseProfile="full" height="200mm" version="1.1" viewBox="0,0,200,200" width="200mm" xmlns="http://www.w3.org/2000/svg" xmlns:ev="http://www.w3.org/2001/xml-events" xmlns:xlink="http://www.w3.org/1999/xlink"><defs /><rect fill="#1a1a1a" height="200" width="200" x="0" y="0" /><rect fill="#1a1a1a" height="200" width="180" x="10" y="0" /><text alignment-baseline="middle" fill="#e1ed5e" style="dominant-baseline: central; font-size:9.0px; font-family:Arial;" text-anchor="middle" x="100.0" y="100.0">2026</text><line stroke="#e1ed5e" stroke-width="0.3" x1="100.0" x2="100.0" y1="15.0" y2="10.0" /><path d="M 100.0 14.0 a86.0,86.0 0 0,1 42.46469731375804,11.215312516191453" fill="none" id="id61" stroke="none" /><text fill="#e1ed5e" style="font-size:6.75px; font-family:Arial;" text-anchor="middle"><textPath startOffset="22.20632615414155" xlink:href="#id61">January</textPath></text><path d="M 100.0 79.0 l 0.0 -12.720777463142532 a33.72077746314253,33.72077746314253 0 0,0 0.580447752324716,0.004996097058154321 l -0.21896727305218763 12.718892742692937" fill="red" stroke="none" /><path d="M 100.36148047927253 79.00311137660856 l 0.29010682120822057 -16.85109145050884 a37.85358849150897,37.85358849150897 0 0,0 0.6513942211012107,0.01682359093089696 l -0.5801276775042992 16.843601067435586" fill="red" stroke="none" /><path d="M 100.72285384407766 79.0124445844662 l 0.74758867031561 -21.70571378269992 a42.71858419963128,42.71858419963128 0 0,0 0.7346765862402422,0.0316367192367561 l -1.1211060889451838 21.689629336938967" fill="red" stroke="none" /><path d="M 101.08401301168833 79.027996857942 l 0.43624115374173894 -8.439797999027334 a29.451064820991714,29.451064820991714 0 0,0 0.506050566166592,0.030526352115320458 l -0.5814537687479429 8.43103837753171" fill="red" stroke="none" /><path d="M 101.44485096284872 79.0497635885617 l 0.8748407434045543 -12.685128686593046 a33.71525997067093,33.71525997067093 0 0,0 0.5786338315061403,0.04491312180606079 l -1.093064764273036 12.668190302598521" fill="red" stroke="none" /><path d="M 102.16513564639614 79.11191278185805 l 1.6438488768731931 -15.858987297505186 a36.94395550772857,36.94395550772857 0 0,0 0.6319761391633988,0.07100988281400042 l -1.9165917195463174 15.828341461220585" fill="red" stroke="none" /><path d="M 102.52436894288641 79.15227682838746 l 2.5893348816322552 -21.38425009663831 a42.5404458478652,42.5404458478652 0 0,0 0.7261963466271061,0.09428112776689927 l -2.957045956767207 21.336510645707275" fill="red" stroke="none" /><path d="M 103.59715602781102 79.31037775812273 l 3.974291923129072 -22.858780084254963 a44.20169871433082,44.20169871433082 0 0,0 0.7484923675407463,0.13678219592526036 l -4.367179411772719 22.786982406978964" fill="red" stroke="none" /><path d="M 103.95276090670814 79.375362276772 l 4.404398230447272 -22.981182023339887 a44.399432705991984,44.399432705991984 0 0,0 0.7493643024574993,0.15031542941963044 l -4.799328942371897 22.901962637843045" fill="red" stroke="none" /><path d="M 104.307194497241 79.44645832069477 l 2.7466081559258635 -13.106565130899675 a34.391262296464575,34.391262296464575 0 0,0 0.5783583097876626,0.12640672536816563 l -2.971809189867054 13.057344907435638" fill="red" stroke="none" /><path d="M 105.01212808612495 79.60689891045804 l 4.5434112393242225 -18.48600895723201 a40.03615278506872,40.03615278506872 0 0,0 0.667824211993231,0.1702432613634321 l -4.8609443400024785 18.40506269969971" fill="red" stroke="none" /><path d="M 105.36241919743992 79.69619591428918 l 2.3075436041314163 -8.737085172283233 a30.036670559044374,30.036670559044374 0 0,0 0.4987547821252759,0.13632852252588307 l -2.4575962754804035 8.696070108931057" fill="red" stroke="none" /><path d="M 105.71112130821622 79.79150937346287 l 3.9673318718072825 -14.03818700689104 a35.588023053913176,35.588023053913176 0 0,0 0.5880662919805746,0.17167267646862427 l -4.208388381511284 13.967816001503712" fill="red" stroke="none" /><path d="M 106.0581310904928 79.89281104454417 l 4.459968974769812 -14.802822449963283 a36.46010594210293,36.46010594210293 0 0,0 0.5993600897014661,0.18622409740566526 l -4.714114437181997 14.723858217675097" fill="red" stroke="none" /><path d="M 107.08798089147638 80.2323363322302 l 8.961762168916232 -24.993450622689164 a47.551567848264995,47.551567848264995 0 0,0 0.7681110595883801,0.2829017856022888 l -9.39065555427719 24.83548556928055" fill="red" stroke="none" /><path d="M 107.4271985657038 80.35727306442388 l 5.989386073677006 -15.840141355616424 a37.934663377388574,37.934663377388574 0 0,0 0.6087914375357399,0.23620161962141084 l -6.2611606762124135 15.734697032104467" fill="red" stroke="none" /><path d="M 107.76421540070413 80.48803036053334 l 4.70003975325273 -11.811500356035555 a33.71227416093533,33.71227416093533 0 0,0 0.5373353311677935,0.2191925732700156 l -4.902658954008912 11.728846896581961" fill="red" stroke="none" /><path d="M 108.76106565485865 80.91482961587045 l 13.062523956537095 -28.4554990429765 a52.310460838191794,52.310460838191794 0 0,0 0.815101074438831,0.38270088376119255 l -13.550403242275523 28.226433176575302" fill="red" stroke="none" /><path d="M 109.08828744355905 81.06846463323043 l 10.61249874647862 -22.106573608776525 a45.52194377214549,45.52194377214549 0 0,0 0.7034847016950829,0.3451968879212615 l -10.991454715184135 21.92062156072043" fill="red" stroke="none" /><path d="M 109.41281617654863 81.2277094730956 l 13.66559006248713 -27.253738101645254 a51.48794175192903,51.48794175192903 0 0,0 0.7888431083011523,0.4040760789044043 l -14.132693658377038 27.01446949742835" fill="red" stroke="none" /><path d="M 109.73455568895987 81.39251694778311 l 9.778294327796948 -18.691088920516673 a42.094355761570135,42.094355761570135 0 0,0 0.6391425641798173,0.3414078228761357 l -10.098581938505077 18.520002371138784" fill="red" stroke="none" /><path d="M 110.05341064243156 81.56283822128135 l 9.545936012741697 -17.50649335394571 a40.939964992725145,40.939964992725145 0 0,0 0.6158070826398119,0.34269597476887337 l -9.845867184453544 17.33958198161666" fill="red" stroke="none" /><path d="M 110.36928655335952 81.73862282372117 l 4.215975540804863 -7.424765351060731 a29.538242809792706,29.538242809792706 0 0,0 0.43998375562550857,0.2548669902446524 l -4.3431560288957 7.35109420342603" fill="red" stroke="none" /><line stroke="#e1ed5e" stroke-width="0.3" x1="143.23703022742887" x2="145.7803849466894" y1="26.81831364943548" y2="22.513508569990506" /><path d="M 143.74570117128098 25.957352633546492 a86.0,86.0 0 0,1 28.547481713284135,27.462654790039103" fill="none" id="id62" stroke="none" /><text fill="#e1ed5e" style="font-size:6.75px; font-family:Arial;" text-anchor="middle"><textPath startOffset="19.985693538727396" xlink:href="#id62">February</textPath></text><path d="M 110.68208982089419 81.91981866633111 l 18.209073189027457 -30.820125153011073 a56.79735270729701,56.79735270729701 0 0,0 0.8374578541235961,0.5045589867295807 l -18.73689310936869 30.50211955682288" fill="red" stroke="none" /><path d="M 110.99172775467656 82.1063720568725 l 14.30942918447004 -23.294572756907925 a48.338560377463914,48.338560377463914 0 0,0 0.7052385286453298,0.44162030193899854 l -14.708286865487635 23.044808113645985" fill="red" stroke="none" /><path d="M 111.2981086023043 82.29822771554956 l 12.0928596470707 -18.946980886394194 a43.47721822541966,43.47721822541966 0 0,0 0.6273824166416582,0.4080669755610091 l -12.41720908949664 18.736014986673656" fill="red" stroke="none" /><path d="M 111.60114157652 82.49532879139004 l 8.15755290054422 -12.308726727366029 a35.766530498873195,35.766530498873195 0 0,0 0.5102611730870312,0.3445306218251596 l -8.368218768037792 12.166484193242198" fill="red" stroke="none" /><path d="M 111.90073688211348 82.69761687909136 l 12.697448883613875 -18.460716123607362 a43.4058752997602,43.4058752997602 0 0,0 0.6119584778749597,0.4287160214413698 l -13.013338501072486 18.239415259402055" fill="red" stroke="none" /><path d="M 112.19680574252982 82.90503203632743 l 12.46735838789769 -17.474172888526226 a42.4658273381295,42.4658273381295 0 0,0 0.5913966714260617,0.429674832711844 l -12.76630037567754 17.256978820997706" fill="red" stroke="none" /><path d="M 112.48926042617603 83.11751280151076 l 10.045817988680758 -13.579538563932696 a37.891486810551555,37.891486810551555 0 0,0 0.5210148836362031,0.392417608583474 l -10.278079026075345 13.404604365843374" fill="red" stroke="none" /><path d="M 112.77801427241765 83.33499621200491 l 12.795889192462996 -16.688316143413953 a42.02937649880096,42.02937649880096 0 0,0 0.5703335251955046,0.4451543628955657 l -13.08125527281793 16.465583391295162" fill="red" stroke="none" /><path d="M 113.06298171725822 83.55741782278167 l 15.699594733731198 -19.761328779734406 a46.23860911270983,46.23860911270983 0 0,0 0.6189293274613182,0.5004644724907713 l -16.03742745975701 19.488158209979506" fill="red" stroke="none" /><path d="M 113.34407831869373 83.78471172551755 l 14.66141938372864 -17.816078124121606 a44.073141486810556,44.073141486810556 0 0,0 0.5816447136001898,0.4871107204336749 l -14.965921634287948 17.561066246294114" fill="red" stroke="none" /><path d="M 113.6212207817346 84.01681056812373 l 13.64844144676605 -16.015130258079054 a42.04196642685851,42.04196642685851 0 0,0 0.5467581784885523,0.474143304540714 l -13.922093423901366 15.77782196011867" fill="red" stroke="none" /><path d="M 113.89432698308785 84.25364557470407 l 10.926094460122036 -12.382474952745708 a37.51378896882494,37.51378896882494 0 0,0 0.48051414505984114,0.4314103438471723 l -11.137619592777867 12.192565600129239" fill="red" stroke="none" /><path d="M 114.16331599549186 84.49514656593476 l 17.313549948925594 -18.953474911306365 a46.67086330935252,46.67086330935252 0 0,0 0.5884798409907092,0.5469278773509039 l -17.63723767371115 18.652642447880822" fill="red" stroke="none" /><path d="M 114.42810811169701 84.74124197986012 l 11.599576125770797 -12.267382796767134 a37.88309352517986,37.88309352517986 0 0,0 0.46996098319558366,0.4521020934845525 l -11.8090203525788 12.06589761652028" fill="red" stroke="none" /><path d="M 114.68862486808459 84.99185889309783 l 14.715043258135106 -15.035134166446971 a42.03776978417267,42.03776978417267 0 0,0 0.5127891266434713,0.5105870471698164 l -14.9716681849459 14.779611268627036" fill="red" stroke="none" /><path d="M 114.94478906791727 85.2469230424477 l 19.436588180256905 -19.187255163819014 a48.31175059952038,48.31175059952038 0 0,0 0.5791330528077155,0.596847518150896 l -19.76398549676773 18.849843450118005" fill="red" stroke="none" /><path d="M 115.19652480421416 85.50635884689758 l 20.277555441807046 -19.339659285403854 a49.02145028315034,49.02145028315034 0 0,0 0.5771287825902413,0.615640746126604 l -20.60745154636775 18.987749122399197" fill="red" stroke="none" /><path d="M 115.9244219780498 86.31012108654704 l 9.710224268334631 -8.347668420191727 a33.805156125359076,33.805156125359076 0 0,0 0.3755421015932019,0.44452339620993797 l -9.852476983414949 8.179286074352683" fill="red" stroke="none" /><path d="M 116.15771136456269 86.58626213691792 l 9.80043334493881 -8.136080715115297 a33.73751558002814,33.73751558002814 0 0,0 0.367098723030099,0.450019628193296 l -9.939030560045317 7.966176917313899" fill="red" stroke="none" /><path d="M 116.82858285166822 87.43820079747576 l 10.1294347620353 -7.561178896483418 a33.64028776978417,33.64028776978417 0 0,0 0.342389867723975,0.4670193947900293 l -10.258087242272902 7.385697058021895" fill="red" stroke="none" /><path d="M 117.04232023915458 87.72973835380427 l 41.951898622283395 -30.204852709400292 a72.69424460431654,72.69424460431654 0 0,0 0.7223986410385971,1.0217816469329892 l -42.46560988312587 29.47824456213551" fill="red" stroke="none" /><path d="M 117.45458315368197 88.32363383020206 l 10.595685713249399 -7.088058484049138 a33.747906840232964,33.747906840232964 0 0,0 0.31884277460616767,0.48561942027060456 l -10.716125123213493 6.904620999800859" fill="red" stroke="none" /><line stroke="#e1ed5e" stroke-width="0.3" x1="172.23445277983987" x2="176.4835382374775" y1="55.19839476539836" y2="52.563006222186495" /><path d="M 173.08426987136738 54.67131705675599 a86.0,86.0 0 0,1 12.851231095245387,41.99856678651699" fill="none" id="id63" stroke="none" /><text fill="#e1ed5e" style="font-size:6.75px; font-family:Arial;" text-anchor="middle"><textPath startOffset="22.20632615414155" xlink:href="#id63">March</textPath></text><path d="M 117.84615892207809 88.93136811851018 l 14.40103711577764 -8.93188160220941 a37.94604316546763,37.94604316546763 0 0,0 0.3394981918257321,0.558045762322456 l -14.552651105889597 8.682668066679872" fill="red" stroke="none" /><path d="M 118.03404312379186 89.2402003453031 l 25.350011857064736 -15.124786325167463 a50.51918465227818,50.51918465227818 0 0,0 0.43913278152002394,0.7506202706002815 l -25.60660431305509 14.686186642213286" fill="red" stroke="none" /><path d="M 118.21658344932153 89.55222093294921 l 15.227811464530769 -8.733625067440741 a38.554556354916066,38.554556354916066 0 0,0 0.3252211929349357,0.5785322130753494 l -15.375890298758138 8.470209344430598" fill="red" stroke="none" /><path d="M 118.3937258080291 89.86733742301442 l 18.434159657727005 -10.154936615424205 a42.04616306954436,42.04616306954436 0 0,0 0.3437612218085933,0.6369373357298354 l -18.606228978754064 9.83611829636191" fill="red" stroke="none" /><path d="M 118.56541770881063 90.18545643968196 l 11.263910504386306 -5.954627148106631 a33.7410071942446,33.7410071942446 0 0,0 0.26702081482667156,0.5157992232267841 l -11.364740752373095 5.7598552026195025" fill="red" stroke="none" /><path d="M 118.73160827565052 90.50648371742162 l 11.353510771392491 -5.754163646095177 a33.72841726618705,33.72841726618705 0 0,0 0.25800631013058734,0.5201249774648161 l -11.450877094476487 5.557879080131411" fill="red" stroke="none" /><path d="M 118.89224826269711 90.83032412892265 l 19.333973491860892 -9.384074767343538 a42.4910071942446,42.4910071942446 0 0,0 0.3137086905180293,0.6607505079215685 l -19.492640376220677 9.049881843781428" fill="red" stroke="none" /><path d="M 119.196687751892 91.48605970444005 l 19.23121416871196 -8.529253137818149 a42.03776978417267,42.03776978417267 0 0,0 0.2876770502609647,0.6639982950991208 l -19.375181928815607 8.196955698132424" fill="red" stroke="none" /><path d="M 119.34039704204932 91.81776055985345 l 39.73207066192387 -16.809236899421762 a64.14148681055156,64.14148681055156 0 0,0 0.42143495955862487,1.0205381824923492 l -40.015527308368696 16.12282414647611" fill="red" stroke="none" /><path d="M 119.47837535516314 92.15188598940014 l 23.732944552443968 -9.562340352243664 a46.586930455635496,46.586930455635496 0 0,0 0.29329012844988883,0.7463913862214024 l -23.894028230775557 9.152399961126477" fill="red" stroke="none" /><path d="M 119.61058180528143 92.48833698450437 l 11.807890283635677 -4.522909805293434 a33.64448441247002,33.64448441247002 0 0,0 0.20250040247451442,0.5426004017657544 l -11.883995274611818 4.318986266498346" fill="red" stroke="none" /><path d="M 119.7369772167798 92.82701384747503 l 51.783927633713425 -18.8197712223222 a76.09772182254196,76.09772182254196 0 0,0 0.4368259963380742,1.2349659152690242 l -52.100206710861315 17.92560768062656" fill="red" stroke="none" /><path d="M 120.28053869075195 94.5502522615342 l 33.04706484500228 -8.880344336420885 a55.219424460431654,55.219424460431654 0 0,0 0.23876791871513933,0.9200701903733466 l -33.19502909558772 8.310177720498688" fill="red" stroke="none" /><path d="M 120.37134235888165 94.90015583598534 l 20.424265510493452 -5.113093159644582 a42.054556354916066,42.054556354916066 0 0,0 0.16975461802284741,0.7037424847204419 l -20.50925292877712 4.7607654432647335" fill="red" stroke="none" /><path d="M 120.45610955862082 95.25157060432595 l 16.392685717439953 -3.805196218355906 a37.828537170263786,37.828537170263786 0 0,0 0.14177705746675323,0.6355587489361761 l -16.455757161908743 3.522459299869766" fill="red" stroke="none" /><path d="M 120.53481517161879 95.60439243477599 l 20.584059332701813 -4.406148590560287 a42.05035971223022,42.05035971223022 0 0,0 0.1454155585395146,0.7090979067231443 l -20.656854187156327 4.051175027673731" fill="red" stroke="none" /><path d="M 120.6074358757038 95.95851677861258 l 24.77329819062437 -4.858482616649976 a46.245220469979714,46.245220469979714 0 0,0 0.14647463629474558,0.7824733640743257 l -24.853258550828976 4.431331175113088" fill="red" stroke="none" /><path d="M 120.67395015179393 96.31383870115 l 18.70323188192869 -3.3347826138876733 a39.99820143884892,39.99820143884892 0 0,0 0.11501985368720112,0.6788536873624599 l -18.757863597136115 3.0123431382093755" fill="red" stroke="none" /><path d="M 120.73433829027371 96.67025291283417 l 33.20228871302224 -5.331987092218186 a54.62769784172662,54.62769784172662 0 0,0 0.14110622204249268,0.9297136998385825 l -33.289150828504035 4.759674279987521" fill="red" stroke="none" /><path d="M 120.78858239683441 97.02765380044208 l 8.375256217429692 -1.1974919940664972 a29.46043165467626,29.46043165467626 0 0,0 0.06745597254476218,0.5026253474632406 l -8.394628189032291 1.053148304538592" fill="red" stroke="none" /><path d="M 120.83666639777658 97.38593545837742 l 14.632303301716005 -1.835696003049907 a35.747002398081534,35.747002398081534 0 0,0 0.07134020246111704,0.6111992879594134 l -14.661733857180712 1.5835529767656409" fill="red" stroke="none" /><path d="M 120.87857604477298 97.74499172005257 l 20.932816949765403 -2.2608666148074046 a42.054556354916066,42.054556354916066 0 0,0 0.07153855386458562,0.7203834745825054 l -20.968632629312218 1.9002076095204643" fill="red" stroke="none" /><path d="M 120.96714384426684 98.82574320788733 l 13.199208362081688 -0.7392165659188146 a34.21989192531376,34.21989192531376 0 0,0 0.0278751846419918,0.5884010907996234 l -13.209977154957176 0.5119043684961914" fill="red" stroke="none" /><path d="M 120.98425023603335 99.18683210126433 l 21.0890876173085 -0.817230488157809 a42.104916067146284,42.104916067146284 0 0,0 0.0218310090980242,0.7244649102487979 l -21.10003032086217 0.454095430484012" fill="red" stroke="none" /><line stroke="#e1ed5e" stroke-width="0.3" x1="184.98032266829074" x2="189.97916517819016" y1="98.17113171792111" y2="98.06355123074" /><path d="M 185.9800911702706 98.14961562048488 a86.0,86.0 0 0,1 -9.607161424134198,41.387399972396054" fill="none" id="id64" stroke="none" /><text fill="#e1ed5e" style="font-size:6.75px; font-family:Arial;" text-anchor="middle"><textPath startOffset="21.466115282336823" xlink:href="#id64">April</textPath></text><path d="M 120.99513854157772 99.54816195383933 l 21.838468447024773 -0.46998741612035844 a42.843525179856115,42.843525179856115 0 0,0 0.00952144890792205,0.7374467109234085 l -21.843322903050414 0.0940044471364872" fill="red" stroke="none" /><path d="M 120.99980553446 99.90962569577887 l 25.22158898123593 -0.10854307921043001 a46.22182254196643,46.22182254196643 0 0,0 -0.0034241626006022807,0.7956547975748635 l -25.219720521345824 -0.3256211965681182" fill="red" stroke="none" /><path d="M 120.99824983174949 100.27111621757518 l 21.05280163986555 0.2718205562699249 a42.054556354916066,42.054556354916066 0 0,0 -0.015576081101826596,0.7237592837664387 l -21.045003496078717 -0.6341696558264784" fill="red" stroke="none" /><path d="M 120.9904718944345 100.63252640178507 l 21.38897206029607 0.6445347967030524 a42.398681055155876,42.398681055155876 0 0,0 -0.02826148117591809,0.7293032520818337 l -21.37470844626895 -1.0126152957988923" fill="red" stroke="none" /><path d="M 120.9764740272857 100.99374915477107 l 21.041985103227496 0.9968527066959785 a42.06558454929022,42.06558454929022 0 0,0 -0.04049042694239626,0.7229837729867835 l -21.02170832539757 -1.3589081960181852" fill="red" stroke="none" /><path d="M 120.92983693683757 101.71520430193887 l 44.96736149239423 3.685084222650839 a66.11810551558753,66.11810551558753 0 0,0 -0.10272047075433215,1.133511835215282 l -44.89726642536283 -4.458577446414692" fill="red" stroke="none" /><path d="M 120.89721153311464 102.0752229133903 l 20.96820525734785 2.082273031201578 a42.07134292565947,42.07134292565947 0 0,0 -0.07776727167305253,0.7200283519394417 l -20.929255684173746 -2.442897705025811" fill="red" stroke="none" /><path d="M 120.8583938346157 102.4346265915055 l 20.954265748723646 2.4458169215623884 a42.09652278177458,42.09652278177458 0 0,0 -0.09020380910169194,0.7190131108599404 l -20.909060430375106 -2.8061477867097238" fill="red" stroke="none" /><path d="M 120.81339534386255 102.79330883721812 l 20.817554695450056 2.7938670524134017 a42.004196642685855,42.004196642685855 0 0,0 -0.10234212297658617,0.7157805697338296 l -20.76637852145687 -3.1517930941276404" fill="red" stroke="none" /><path d="M 120.76222939487914 103.15116336523771 l 18.781154083477325 2.8504879499758915 a39.996237265844904,39.996237265844904 0 0,0 -0.10916734058228038,0.6797851340142241 l -18.729304988533755 -3.17335231368332" fill="red" stroke="none" /><path d="M 120.70491114924044 103.5080841355445 l 18.68158949616718 3.165267760188532 a39.947841726618705,39.947841726618705 0 0,0 -0.12070631802023635,0.6769851342467016 l -18.624336735807756 -3.486371645168452" fill="red" stroke="none" /><path d="M 120.5718875245553 104.21870165774334 l 24.752864665337217 5.076099656529303 a46.267985611510795,46.267985611510795 0 0,0 -0.1667100765513619,0.7788139770057427 l -24.66182055006141 -5.501427452951215" fill="red" stroke="none" /><path d="M 120.49622156327973 104.57218783832717 l 24.670012485138653 5.50325486615598 a46.27637889688249,46.27637889688249 0 0,0 -0.18012404865783252,0.775969687333608 l -24.57162787055027 -5.927093210838153" fill="red" stroke="none" /><path d="M 119.54520255179757 107.68017299344265 l 27.431246507049227 10.778947828326883 a50.473021582733814,50.473021582733814 0 0,0 -0.3247034888741689,0.8058874306463792 l -27.241640403917664 -11.249534626816075" fill="red" stroke="none" /><path d="M 119.41010516605496 108.01547362559984 l 11.741484479945717 4.848688781912609 a33.70323741007194,33.70323741007194 0 0,0 -0.2260508533262524,0.5343174429206716 l -11.656282645427156 -5.050080750499445" fill="red" stroke="none" /><path d="M 119.26925614724726 108.34839909993367 l 19.3428660402408 8.380290562671904 a42.08022145437539,42.08022145437539 0 0,0 -0.2936776957438607,0.6621656752549734 l -19.195747259765664 -8.712004574419565" fill="red" stroke="none" /><path d="M 118.97047184881838 109.00673069616215 l 15.270395804764272 7.250022231043396 a37.90407673860911,37.90407673860911 0 0,0 -0.2849064321054957,0.5869916366350184 l -15.143336116044061 -7.51180282364369" fill="red" stroke="none" /><path d="M 118.81262510543309 109.33194174019688 l 7.985214972809729 3.9610400192202575 a29.913669064748202,29.913669064748202 0 0,0 -0.23278721857783258,0.45931126678321244 l -7.915849084445627 -4.097905497706164" fill="red" stroke="none" /><path d="M 118.64920377521936 109.65438752849418 l 21.096732211801992 10.92143293689797 a44.75604780706681,44.75604780706681 0 0,0 -0.3600677151795577,0.6811124220583665 l -20.905611988397542 -11.28296037404247" fill="red" stroke="none" /><line stroke="#e1ed5e" stroke-width="0.3" x1="174.80103733775053" x2="179.2010983576182" y1="140.37084112569926" y2="142.7455964860345" /><path d="M 175.68104954172406 140.8457921977663 a86.0,86.0 0 0,1 -30.038265399797805,32.042727171017184" fill="none" id="id65" stroke="none" /><text fill="#e1ed5e" style="font-size:6.75px; font-family:Arial;" text-anchor="middle"><textPath startOffset="22.206326154141568" xlink:href="#id65">May</textPath></text><path d="M 118.48025628344425 109.97397251340804 l 18.509801057678377 9.98991811294987 a42.03357314148681,42.03357314148681 0 0,0 -0.34912603575812956,0.6337651654131864 l -18.335098612468737 -10.30705379676086" fill="red" stroke="none" /><path d="M 117.94076556474637 110.91462005526583 l 12.573594091839631 7.649394990770833 a35.71762589928058,35.71762589928058 0 0,0 -0.3240700343297298,0.5225040814848435 l -12.440059417841939 -7.86469540362095" fill="red" stroke="none" /><path d="M 117.55443506779139 111.5257021239791 l 16.224872539675285 10.65275226287037 a40.40947242206235,40.40947242206235 0 0,0 -0.38677040327741147,0.5781692752022953 l -16.039099030987153 -10.930458452278472" fill="red" stroke="none" /><path d="M 117.14729908036423 112.12312394758627 l 48.042592547303485 33.966066695675366 a79.8369304556355,79.8369304556355 0 0,0 -0.8030082393778043,1.1153082114104078 l -47.450804515550075 -34.788008512536905" fill="red" stroke="none" /><path d="M 116.93607887273984 112.41649034213515 l 10.285520322593202 7.540710261740347 a33.75359712230216,33.75359712230216 0 0,0 -0.34756357553384787,0.46561820745535165 l -10.154195480364262 -7.716641348705014" fill="red" stroke="none" /><path d="M 116.71984013943494 112.70617746262583 l 13.405275507476611 10.187286966437815 a37.836930455635496,37.836930455635496 0 0,0 -0.39853671781812455,0.5151624310701267 l -13.22793197244042 -10.416527391621194" fill="red" stroke="none" /><path d="M 116.27256486870786 113.27417163493432 l 22.99101391322233 18.754674951835664 a50.670263788968825,50.670263788968825 0 0,0 -0.5571412664439163,0.6711125462846393 l -22.664776646884867 -19.147648755234073" fill="red" stroke="none" /><path d="M 115.56566222782051 114.09645910891815 l 21.824277815825084 19.764339949674216 a50.44364508393285,50.44364508393285 0 0,0 -0.5883977170046806,0.6385895118481126 l -21.48083369082468 -20.137080716323663" fill="red" stroke="none" /><path d="M 115.32070863581623 114.36230785411682 l 15.363572329041938 14.402490170255437 a42.058752997601914,42.058752997601914 0 0,0 -0.4996849204796198,0.5239176414088955 l -15.113380857183355 -14.66481492824684" fill="red" stroke="none" /><path d="M 115.07121518719521 114.62390073753431 l 12.203275531795748 11.84108168008808 a38.00385688776056,38.00385688776056 0 0,0 -0.45959217812831193,0.46556444998927604 l -11.9976427286119 -12.04938662405802" fill="red" stroke="none" /><path d="M 114.81725581225074 114.88116024355365 l 11.900589750087075 11.951915071711058 a37.86630695443645,37.86630695443645 0 0,0 -0.46584581928721197,0.45592818172055016 l -11.693093978424068 -12.15499335635418" fill="red" stroke="none" /><path d="M 114.55890576462653 115.13401014063108 l 14.608366475657437 15.185424643506924 a42.07134292565947,42.07134292565947 0 0,0 -0.5262206755060259,0.4975744937294439 l -14.344809965760604 -15.43463377398229" fill="red" stroke="none" /><path d="M 114.29624159901734 115.38237550388516 l 17.236056268359633 18.545537852705667 a46.318345323741006,46.318345323741006 0 0,0 -0.5886851064217071,0.537749887127075 l -16.91427161247106 -18.839480506419324" fill="red" stroke="none" /><path d="M 114.0293411484842 115.62618273729858 l 14.107842657708334 15.713619411288255 a42.117505995203835,42.117505995203835 0 0,0 -0.5436320036429827,0.4796920362056973 l -13.835268301158763 -15.95413458926624" fill="red" stroke="none" /><path d="M 113.75828350139079 115.86535959552629 l 16.540734121576136 19.073941512127526 a46.247002398081534,46.247002398081534 0 0,0 -0.605911760216015,0.5163711470310004 l -16.209956884783075 -19.35583704938147" fill="red" stroke="none" /><path d="M 112.92097659922987 116.55440617244103 l 20.68285822538596 26.49895952063403 a54.615107913669064,54.615107913669064 0 0,0 -0.7460716881266332,0.5720559563266563 l -20.223657808765832 -26.851054818788057" fill="red" stroke="none" /><path d="M 112.63410532772338 116.77436683061366 l 8.150058352895893 10.820874526223202 a34.54676258992806,34.54676258992806 0 0,0 -0.4780861158102276,0.353676679051603 l -7.962587266667102 -10.959561154014574" fill="red" stroke="none" /><path d="M 112.34349029814194 116.9893568818739 l 7.646846507641886 10.524981281736423 a34.009592326139085,34.009592326139085 0 0,0 -0.476575886313477,0.3400242410100813 l -7.464543293479524 -10.655049784590723" fill="red" stroke="none" /><path d="M 111.7513745106137 117.40417183066458 l 12.8245915672385 18.99364156020369 a43.91786570743405,43.91786570743405 0 0,0 -0.630169719761446,0.4176421281533479 l -12.49574714873709 -19.21158170944836" fill="red" stroke="none" /><path d="M 111.45004920935366 117.60387380957326 l 9.221362572680913 14.177380386207085 a37.912470023980816,37.912470023980816 0 0,0 -0.5501247402693905,0.35111563749114927 l -8.975956030364593 -14.334010452522042" fill="red" stroke="none" /><line stroke="#e1ed5e" stroke-width="0.3" x1="143.8653032363475" x2="146.44561519142675" y1="172.8068346515853" y2="177.08958963109032" /><path d="M 144.38136562736335 173.6633856474863 a86.0,86.0 0 0,1 -40.68145358897372,12.25698825130547" fill="none" id="id66" stroke="none" /><text fill="#e1ed5e" style="font-size:6.75px; font-family:Arial;" text-anchor="middle"><textPath startOffset="21.466115282336833" xlink:href="#id66">June</textPath></text><path d="M 110.8373102113329 117.98757091392108 l 13.07234301271092 21.6972378170319 a46.330935251798564,46.330935251798564 0 0,0 -0.6866512197934975,0.40568564386031286 l -12.696923921889042 -21.919042033185963" fill="red" stroke="none" /><path d="M 110.5260780823613 118.17145234162733 l 4.249136236284933 7.335398427275617 a29.477218225419662,29.477218225419662 0 0,0 -0.4412476141377893,0.2505519111627757 l -4.122239855225945 -7.407453504233022" fill="red" stroke="none" /><path d="M 110.21172684928248 118.3499491758327 l 16.39508663212141 29.46112943218223 a54.71582733812949,54.71582733812949 0 0,0 -0.8269312108026694,0.4509088294076963 l -15.88553260945009 -29.738978913349698" fill="red" stroke="none" /><path d="M 109.89434966115114 118.52300852407294 l 5.991182948298953 11.215970389276777 a33.7158273381295,33.7158273381295 0 0,0 -0.5142612488213698,0.2690371798957125 l -5.797230796951088 -11.317436988117205" fill="red" stroke="none" /><path d="M 109.57404056367764 118.69057910512821 l 11.514103939290969 22.47799861204268 a46.25539568345324,46.25539568345324 0 0,0 -0.7117738268426487,0.35689817296116555 l -11.12547620476556 -22.672864625913146" fill="red" stroke="none" /><path d="M 108.59647513512805 119.15986991738527 l 6.918066620535702 15.4190240122523 a37.899880095923265,37.899880095923265 0 0,0 -0.5975174634623952,0.2619340965623064 l -6.651628482415553 -15.535822662109062" fill="red" stroke="none" /><path d="M 108.2653958097858 119.30500536409082 l 5.003174242174499 11.685623750565766 a33.711630695443645,33.711630695443645 0 0,0 -0.5354186182767575,0.22380502586342035 l -4.80128416440028 -11.77001381944916" fill="red" stroke="none" /><path d="M 107.59598834532513 119.57807347666477 l 6.258645073496305 16.13117444929834 a38.30275779376499,38.30275779376499 0 0,0 -0.6167287160513534,0.2331940290321303 l -5.980046136684677 -16.2365167284371" fill="red" stroke="none" /><path d="M 105.88484417918355 120.15858648285463 l 17.654532537550654 60.47575944856389 a84.0,84.0 0 0,0 -1.391475327581577,0.39324482664592386 l -16.61092604186447 -60.77069306854833" fill="red" stroke="none" /><path d="M 105.53697534728816 120.25689768951611 l 3.8960212225822537 14.253504549317789 a35.77637889688249,35.77637889688249 0 0,0 -0.5954374450503566,0.1572604410845217 l -3.6500933347204 -14.318456339705895" fill="red" stroke="none" /><path d="M 105.18746579009965 120.34920634021253 l 1.0719103970749486 4.2048519895642995 a25.339328537170264,25.339328537170264 0 0,0 -0.4235851452279159,0.10410692292164012 l -0.9993719671038216 -4.222680170799969" fill="red" stroke="none" /><path d="M 103.41894727170886 120.7198165907248 l 3.6369017440660003 22.04068419512952 a43.33872901678657,43.33872901678657 0 0,0 -0.7370971295992893,0.1151194124753075 l -3.2569687508581935 -22.10002191495193" fill="red" stroke="none" /><path d="M 103.06178313531738 120.77559828337769 l 4.594510304376136 31.175852819720838 a52.51258992805755,52.51258992805755 0 0,0 -0.8953931931413249,0.12409333772803037 l -4.057188520047981 -31.25032072294147" fill="red" stroke="none" /><path d="M 102.70371172650421 120.8252237178851 l 3.795678432992019 29.236050483241957 a50.48141486810552,50.48141486810552 0 0,0 -0.8626854972252092,0.10445919963284447 l -3.2918655127154293 -29.297055211600153" fill="red" stroke="none" /><path d="M 102.34483914955558 120.86867818915974 l 3.0210187844094474 26.8865644055781 a48.05575539568345,48.05575539568345 0 0,0 -0.8228230088467713,0.08528896918727227 l -2.557763178957073 -26.93458274322113" fill="red" stroke="none" /><path d="M 101.98527174616119 120.90594882070398 l 2.0138368072570354 21.206753839706916 a42.302158273381295,42.302158273381295 0 0,0 -0.7254934606645204,0.06259862850341183 l -1.6484990288509733 -21.23827672048899" fill="red" stroke="none" /><path d="M 101.62511606390274 120.93702456842531 l 2.41656447472027 31.133573104247155 a52.22721822541966,52.22721822541966 0 0,0 -0.8969085615719847,0.06185606564644907 l -1.880293152369355 -31.17055751440989" fill="red" stroke="none" /><path d="M 101.26447882468166 120.96189622390904 l 1.0403395925688261 17.246228368072238 a38.27757793764988,38.27757793764988 0 0,0 -0.6580315403678363,0.034012714332924965 l -0.7433199837875103 -17.261580889167366" fill="red" stroke="none" /><path d="M 100.90346689309514 120.98055641714683 l 0.24625704914148236 5.718648853786925 a26.723948571324726,26.723948571324726 0 0,0 -0.45975327341489886,0.015834832329699837 l -0.14778342405193123 -5.722040484542718" fill="red" stroke="none" /><line stroke="#e1ed5e" stroke-width="0.3" x1="102.19456741930631" x2="102.32365962044197" y1="184.97166512339345" y2="189.96999836594603" /><path d="M 102.22038585953345 185.97133177190398 a86.0,86.0 0 0,1 -42.740103519485714,-10.115201625700543" fill="none" id="id67" stroke="none" /><text fill="#e1ed5e" style="font-size:6.75px; font-family:Arial;" text-anchor="middle"><textPath startOffset="22.20632615414155" xlink:href="#id67">July</textPath></text><path d="M 99.45781275523022 120.99299961872073 l -0.44831931319427293 17.358518227312388 a38.36430664479637,38.36430664479637 0 0,0 -0.660011581565628,-0.02273213337258814 l 0.747051246434544 -17.348229295513708" fill="red" stroke="none" /><line stroke="#e1ed5e" stroke-width="0.3" x1="58.666819895761336" x2="56.23545636021788" y1="174.27360380694188" y2="178.64263932499728" /><path d="M 58.180547188652646 175.14741091055294 a86.0,86.0 0 0,1 -31.652253787137756,-30.449443065178592" fill="none" id="id68" stroke="none" /><text fill="#e1ed5e" style="font-size:6.75px; font-family:Arial;" text-anchor="middle"><textPath startOffset="22.20632615414155" xlink:href="#id68">August</textPath></text><line stroke="#e1ed5e" stroke-width="0.3" x1="26.63291911575756" x2="22.317208475507996" y1="142.92168965132927" y2="145.44649492493687" /><path d="M 25.769776987707644 143.4266507060508 a86.0,86.0 0 0,1 -11.730757126820373,-40.83630448921669" fill="none" id="id69" stroke="none" /><text fill="#e1ed5e" style="font-size:6.75px; font-family:Arial;" text-anchor="middle"><textPath startOffset="21.46611528233685" xlink:href="#id69">September</textPath></text><line stroke="#e1ed5e" stroke-width="0.3" x1="15.007084014347285" x2="10.007500721073583" y1="101.09737516637583" y2="101.16192664675087" /><path d="M 14.007167355692545 101.11028546245083 a86.0,86.0 0 0,1 10.666146001902534,-42.60595125391555" fill="none" id="id70" stroke="none" /><text fill="#e1ed5e" style="font-size:6.75px; font-family:Arial;" text-anchor="middle"><textPath startOffset="22.20632615414155" xlink:href="#id70">October</textPath></text><line stroke="#e1ed5e" stroke-width="0.3" x1="26.266209847984243" x2="21.928928074336255" y1="57.711370442889674" y2="55.22380399835377" /><path d="M 25.398753493254645 57.213857153982495 a86.0,86.0 0 0,1 29.58750427330803,-30.492523968695096" fill="none" id="id71" stroke="none" /><text fill="#e1ed5e" style="font-size:6.75px; font-family:Arial;" text-anchor="middle"><textPath startOffset="21.46611528233685" xlink:href="#id71">November</textPath></text><line stroke="#e1ed5e" stroke-width="0.3" x1="56.762969772571076" x2="54.21961505331055" y1="26.818313649435495" y2="22.513508569990535" /><path d="M 56.25429882871897 25.957352633546506 a86.0,86.0 0 0,1 42.265352541879196,-11.944610805530505" fill="none" id="id72" stroke="none" /><text fill="#e1ed5e" style="font-size:6.75px; font-family:Arial;" text-anchor="middle"><textPath startOffset="22.20632615414155" xlink:href="#id72">December</textPath></text></svg>