<?xml version="1.0" encoding="utf-8" ?>
<svg baseProfile="full" height="200mm" version="1.1" viewBox="0,0,200,200" width="200mm" xmlns="http://www.w3.org/2000/svg" xmlns:ev="http://www.w3.org/2001/xml-events" xmlns:xlink="http://www.w3.org/1999/xlink"><defs /><rect fill="#1a1a1a" height="200" width="200" x="0" y="0" /><rect fill="#1a1a1a" height="200" width="180" x="10" y="0" /><text alignment-baseline="middle" fill="#e1ed5e" style="dominant-baseline: central; font-size:9.0px; font-family:Arial;" text-anchor="middle" x="100.0" y="100.0">2026</text><line stroke="#e1ed5e" stroke-width="0.3" x1="100.0" x2="100.0" y1="15.0" y2="10.0" /><path d="M 100.0 14.0 a86.0,86.0 0 0,1 42.46469731375804,11.215312516191453" fill="none" id="id61" stroke="none" /><text fill="#e1ed5e" style="font-size:6.75px; font-family:Arial;" text-anchor="middle"><textPath startOffset="22.20632615414155" xlink:href="#id61">January</textPath></text><path d="M 100.0 79.0 l 0.0 -13.620849591775723 a34.62084959177572,34.62084959177572 0 0,0 0.5959410144408194,0.005129452456585041 l -0.234460535168291 13.618831515927697" fill="red" stroke="none" /><path d="M 100.36148047927253 79.00311137660856 l 0.3106336376589019 -18.043408334881498 a39.046082056671366,39.046082056671366 0 0,0 0.6719149550131728,0.017353580945780732 l -0.6211752278669425 18.035387961793358" fill="red" stroke="none" /><path d="M 100.72285384407766 79.0124445844662 l 0.8004851011967146 -23.241524629521482 a44.25530570648108,44.25530570648108 0 0,0 0.7611052081575416,0.03277479129059799 l -1.2004311417435878 23.224302111706688" fill="red" stroke="none" /><path d="M 101.08401301168833 79.027996857942 l 0.4671078601976453 -9.036964875991325 a30.049028893917807,30.049028893917807 0 0,0 0.5163252390686002,0.031146148443684196 l -0.6225951481058574 9.027585458167337" fill="red" stroke="none" /><path d="M 101.44485096284872 79.0497635885617 l 0.9367410299564316 -13.582678448155123 a34.614941703260484,34.614941703260484 0 0,0 0.5940745040240815,0.04611161516715702 l -1.1704057233428542 13.564541570799502" fill="red" stroke="none" /><path d="M 102.16513564639614 79.11191278185805 l 1.7601611511854767 -16.98110679815606 a38.072087024395245,38.072087024395245 0 0,0 0.6512743488589581,0.07317826152971545 l -2.05220220355416 16.94829258315574" fill="red" stroke="none" /><path d="M 102.52436894288641 79.15227682838746 l 2.7725460230430397 -22.897315438711434 a44.06456298631615,44.06456298631615 0 0,0 0.7522141345396505,0.09765898335346046 l -3.166274886090536 22.846198132193837" fill="red" stroke="none" /><path d="M 103.59715602781102 79.31037775812273 l 4.255497171898261 -24.47617736268441 a45.84335956487405,45.84335956487405 0 0,0 0.7762915393477717,0.14186231688515985 l -4.676183832348934 24.399299564448512" fill="red" stroke="none" /><path d="M 103.95276090670814 79.375362276772 l 4.716036108093755 -24.607239981054093 a46.05508443526046,46.05508443526046 0 0,0 0.7773080446992416,0.15592068123224556 l -5.138910562260122 24.522415343744637" fill="red" stroke="none" /><path d="M 104.307194497241 79.44645832069477 l 2.9409473350042115 -14.033934075967604 a35.338775292048936,35.338775292048936 0 0,0 0.5942926482805055,0.1298893545890161 l -3.1820827074382447 13.981231223282718" fill="red" stroke="none" /><path d="M 105.01212808612495 79.60689891045804 l 4.864885130152299 -19.794006167330025 a41.38307600638029,41.38307600638029 0 0,0 0.6902916039955728,0.17597069984217972 l -5.204885622832897 19.707332471318978" fill="red" stroke="none" /><path d="M 105.36241919743992 79.69619591428918 l 2.4708163042240257 -9.355286919138086 a30.676069788329116,30.676069788329116 0 0,0 0.5093719183576723,0.13923058692284165 l -2.6314861118054087 9.31136979138895" fill="red" stroke="none" /><path d="M 105.71112130821622 79.79150937346287 l 4.248044654748282 -15.031473847892173 a36.62021412876923,36.62021412876923 0 0,0 0.6051225015116993,0.17665185174282036 l -4.506157373983409 14.95612366723065" fill="red" stroke="none" /><path d="M 106.0581310904928 79.89281104454417 l 4.775538819489618 -15.850211884368681 a37.55400216853418,37.55400216853418 0 0,0 0.6173424219919718,0.19181129558183363 l -5.047666614192308 15.765660453904326" fill="red" stroke="none" /><path d="M 107.08798089147638 80.2323363322302 l 9.595861175447254 -26.76188878372395 a49.43025224951171,49.43025224951171 0 0,0 0.7984578668835349,0.2940787708363362 l -10.055101368103367 26.59274674508129" fill="red" stroke="none" /><path d="M 107.4271985657038 80.35727306442388 l 6.413171450644737 -16.960927391620096 a39.13289348226514,39.13289348226514 0 0,0 0.6280211383713408,0.24366244479429683 l -6.704175754015745 16.84802224293525" fill="red" stroke="none" /><path d="M 107.76421540070413 80.48803036053334 l 5.032596061043509 -12.647235616605261 a34.61174462938382,34.61174462938382 0 0,0 0.5516718680543935,0.22504080663506312 l -5.249551798686289 12.558733923786619" fill="red" stroke="none" /><path d="M 108.76106565485865 80.91482961587045 l 13.986776721507482 -30.468898119341173 a54.525865770537465,54.525865770537465 0 0,0 0.8496214918034902,0.3989086825821616 l -14.509176424610569 30.223624454119008" fill="red" stroke="none" /><path d="M 109.08828744355905 81.06846463323043 l 11.363397373904212 -23.670747718612922 a47.25701996486791,47.25701996486791 0 0,0 0.7302981340029195,0.35835412270525896 l -11.769166774917561 23.47163843577283" fill="red" stroke="none" /><path d="M 109.41281617654863 81.2277094730956 l 14.632513410703053 -29.182105305413593 a53.64514847217964,53.64514847217964 0 0,0 0.821893519650852,0.42100578328266175 l -15.13266741794266 28.92590699681843" fill="red" stroke="none" /><path d="M 109.73455568895987 81.39251694778311 l 10.470167935013395 -20.01359678136921 a43.58690932187524,43.58690932187524 0 0,0 0.6618048544667262,0.35351323350258834 l -10.813117836008432 19.830404821364866" fill="red" stroke="none" /><path d="M 110.05341064243156 81.56283822128135 l 10.221368860433548 -18.745183896535877 a42.35083840733166,42.35083840733166 0 0,0 0.6370290314513776,0.35450596630599324 l -10.54252198095696 18.566462532669703" fill="red" stroke="none" /><path d="M 110.36928655335952 81.73862282372117 l 4.514281370796192 -7.950112514274159 a30.142375253966343,30.142375253966343 0 0,0 0.44898254622366196,0.2600796705908453 l -4.650460649485183 7.871228686293264" fill="red" stroke="none" /><line stroke="#e1ed5e" stroke-width="0.3" x1="143.23703022742887" x2="145.7803849466894" y1="26.81831364943548" y2="22.513508569990506" /><path d="M 143.74570117128098 25.957352633546492 a86.0,86.0 0 0,1 28.547481713284135,27.462654790039103" fill="none" id="id62" stroke="none" /><text fill="#e1ed5e" style="font-size:6.75px; font-family:Arial;" text-anchor="middle"><textPath startOffset="19.985693538727396" xlink:href="#id62">February</textPath></text><path d="M 110.68208982089419 81.91981866633111 l 19.49747551452783 -33.00083586283897 a59.330232442363965,59.330232442363965 0 0,0 0.8748043135371841,0.527059810653881 l -20.062641894282653 32.66032944272647" fill="red" stroke="none" /><path d="M 110.99172775467656 82.1063720568725 l 15.321908054013141 -24.942805009037215 a50.272929271504154,50.272929271504154 0 0,0 0.7334601277587001,0.45929266471473656 l -15.748987334144104 24.675368002999534" fill="red" stroke="none" /><path d="M 111.2981086023043 82.29822771554956 l 12.948502783297101 -20.287594655246053 a45.06761768901569,45.06761768901569 0 0,0 0.6503321061485434,0.4229940920034323 l -13.295801915229925 20.061701639083093" fill="red" stroke="none" /><path d="M 111.60114157652 82.49532879139004 l 8.734749225604125 -13.179643768275236 a36.8113520577093,36.8113520577093 0 0,0 0.5251670604303711,0.35459514349782995 l -8.960320980441036 13.027336712478736" fill="red" stroke="none" /><path d="M 111.90073688211348 82.69761687909136 l 13.59587037380966 -19.766923712381857 a44.99122681883024,44.99122681883024 0 0,0 0.6343095834754549,0.4443743992795768 l -13.934111096868767 19.529964470338346" fill="red" stroke="none" /><path d="M 112.19680574252982 82.90503203632743 l 13.349499580536381 -18.710576562236493 a43.98466476462197,43.98466476462197 0 0,0 0.6125486294772464,0.445042629786615 l -13.669593526367416 18.478014697633203" fill="red" stroke="none" /><path d="M 112.48926042617603 83.11751280151076 l 10.756620516838485 -14.540373246915667 a39.08666191155492,39.08666191155492 0 0,0 0.5374487601765333,0.40479526368366 l -11.0053154307734 14.35306139372616" fill="red" stroke="none" /><path d="M 112.77801427241765 83.33499621200491 l 13.701275931330562 -17.869115687940816 a43.51733238231098,43.51733238231098 0 0,0 0.5905249054888068,0.46091405548485526 l -14.0068333919788 17.630623243232737" fill="red" stroke="none" /><path d="M 113.06298171725822 83.55741782278167 l 16.81043624413501 -21.159562599242008 a48.0243937232525,48.0243937232525 0 0,0 0.6428330410289077,0.5197929464705761 l -17.172172683728405 20.867063555507304" fill="red" stroke="none" /><path d="M 113.34407831869373 83.78471172551755 l 15.698803693904017 -19.07667366614219 a45.70570613409415,45.70570613409415 0 0,0 0.6031900939536015,0.5051543568676887 l -16.024851324816737 18.80361815188068" fill="red" stroke="none" /><path d="M 113.6212207817346 84.01681056812373 l 14.614151426451642 -17.14829781984899 a43.53081312410842,43.53081312410842 0 0,0 0.5661207149591826,0.49093430536644184 l -14.907165940057588 16.89419852106288" fill="red" stroke="none" /><path d="M 113.89432698308785 84.25364557470407 l 11.69918188554579 -13.25861012771887 a38.68223965763195,38.68223965763195 0 0,0 0.4954808306229356,0.4448475819210338 l -11.925673703764717 13.055263537028539" fill="red" stroke="none" /><path d="M 114.16331599549186 84.49514656593476 l 18.53858857583959 -20.294548171792528 a48.48723252496434,48.48723252496434 0 0,0 0.6113827099626972,0.5682135980155358 l -18.885179169597134 19.97242998770235" fill="red" stroke="none" /><path d="M 114.42810811169701 84.74124197986012 l 12.42031646220194 -13.135374503927832 a39.077674750356636,39.077674750356636 0 0,0 0.4847804320538959,0.46635839154481495 l -12.644580137868255 12.919633025620715" fill="red" stroke="none" /><path d="M 114.68862486808459 84.99185889309783 l 15.75622178253382 -16.0989610632455 a43.526319543509274,43.526319543509274 0 0,0 0.5309468960725945,0.5286668413664908 l -16.03100447877374 15.825358371228889" fill="red" stroke="none" /><path d="M 114.94478906791727 85.2469230424477 l 20.81184463352473 -20.544869794525752 a50.24422253922967,50.24422253922967 0 0,0 0.6022983978846583,0.6207214425440061 l -21.162407295112494 20.183584156431632" fill="red" stroke="none" /><path d="M 115.19652480421416 85.50635884689758 l 21.7123154274185 -20.708057431703473 a51.0041377782206,51.0041377782206 0 0,0 0.600470932071284,0.640540523708674 l -22.065553681460244 20.331247491116745" fill="red" stroke="none" /><path d="M 115.9244219780498 86.31012108654704 l 10.397281506151177 -8.938316570892885 a34.711198555912304,34.711198555912304 0 0,0 0.3856073436302688,0.4564374680410601 l -10.549599463268564 8.758020153222718" fill="red" stroke="none" /><path d="M 116.15771136456269 86.58626213691792 l 10.493873421841762 -8.711757752875242 a34.63877203191031,34.63877203191031 0 0,0 0.37690531628157237,0.46204135197496415 l -10.642277230199742 8.529832231292177" fill="red" stroke="none" /><path d="M 116.82858285166822 87.43820079747576 l 10.84615368385691 -8.096178145079104 a34.534664764621965,34.534664764621965 0 0,0 0.351492810690858,0.4794357987667647 l -10.983909107061395 7.908279902640846" fill="red" stroke="none" /><path d="M 117.04232023915458 87.72973835380427 l 44.920249794416435 -32.34202916358897 a76.35192582025678,76.35192582025678 0 0,0 0.7587468272551265,1.0731935786082152 l -45.47030924147545 31.56400908464896" fill="red" stroke="none" /><path d="M 117.45458315368197 88.32363383020206 l 11.345394716640515 -7.589581595046054 a34.649898536774415,34.649898536774415 0 0,0 0.3273645930572647,0.49859873441998354 l -11.474355945055704 7.393164796648397" fill="red" stroke="none" /><line stroke="#e1ed5e" stroke-width="0.3" x1="172.23445277983987" x2="176.4835382374775" y1="55.19839476539836" y2="52.563006222186495" /><path d="M 173.08426987136738 54.67131705675599 a86.0,86.0 0 0,1 12.851231095245387,41.99856678651699" fill="none" id="id63" stroke="none" /><text fill="#e1ed5e" style="font-size:6.75px; font-family:Arial;" text-anchor="middle"><textPath startOffset="22.20632615414155" xlink:href="#id63">March</textPath></text><path d="M 117.84615892207809 88.93136811851018 l 15.419997801858338 -9.563866377486992 a39.14507845934379,39.14507845934379 0 0,0 0.35022580082652094,0.5756791308848882 l -15.582339400971083 9.297019473395023" fill="red" stroke="none" /><path d="M 118.03404312379186 89.2402003453031 l 27.143678887179444 -16.19495665573566 a52.607845934379455,52.607845934379455 0 0,0 0.4572882534417378,0.7816538572971817 l -27.418426815091507 15.72532338608458" fill="red" stroke="none" /><path d="M 118.21658344932153 89.55222093294921 l 16.305271448326383 -9.35158199090017 a39.79664764621968,39.79664764621968 0 0,0 0.33569866822406186,0.5971704725065948 l -16.463827757842875 9.069528008458782" fill="red" stroke="none" /><path d="M 118.3937258080291 89.86733742301442 l 19.738488215534797 -10.873459947984893 a43.535306704707565,43.535306704707565 0 0,0 0.3559361694875407,0.659495664724828 l -19.922732484240804 10.532083299927606" fill="red" stroke="none" /><path d="M 118.56541770881063 90.18545643968196 l 12.060900463041888 -6.375953120354977 a34.64251069900143,34.64251069900143 0 0,0 0.2741551661820848,0.5295805192270147 l -12.16886506238409 6.167399878867617" fill="red" stroke="none" /><path d="M 118.73160827565052 90.50648371742162 l 12.156840492164344 -6.161305610212611 a34.629029957204,34.629029957204 0 0,0 0.26489556779815676,0.534013300534435 l -12.261096072915908 5.951132721179226" fill="red" stroke="none" /><path d="M 118.89224826269711 90.83032412892265 l 20.701969333795695 -10.048054950596374 a44.01162624821683,44.01162624821683 0 0,0 0.3249353345469099,0.684396683397575 l -20.87186286218436 9.690215851558259" fill="red" stroke="none" /><path d="M 119.196687751892 91.48605970444005 l 20.591939165528096 -9.132749508197291 a43.526319543509274,43.526319543509274 0 0,0 0.29786364213135097,0.687510353598995 l -20.74609351750213 8.776940010011693" fill="red" stroke="none" /><path d="M 119.34039704204932 91.81776055985345 l 42.543355547560715 -17.998592320550607 a67.19400855920114,67.19400855920114 0 0,0 0.44149123582633265,1.069106046324167 l -42.84686847027324 17.263611703773137" fill="red" stroke="none" /><path d="M 119.47837535516314 92.15188598940014 l 25.412194266853696 -10.238933906410974 a48.397360912981455,48.397360912981455 0 0,0 0.30468777530473445,0.7753971542662133 l -25.584675592040128 9.799987747248977" fill="red" stroke="none" /><path d="M 119.61058180528143 92.48833698450437 l 12.643370109696063 -4.842933095368404 a34.53915834522111,34.53915834522111 0 0,0 0.2078852919929403,0.5570292284765053 l -12.724859990190629 4.624580729862566" fill="red" stroke="none" /><path d="M 119.7369772167798 92.82701384747503 l 55.447954467710844 -20.151384136198352 a79.99621968616262,79.99621968616262 0 0,0 0.4592046585727889,1.2982334069496286 l -55.78661220709344 19.193953102822107" fill="red" stroke="none" /><path d="M 120.28053869075195 94.5502522615342 l 35.38534503945608 -9.508682537685473 a57.640656205420825,57.640656205420825 0 0,0 0.24923728651690527,0.9604129352374563 l -35.54377865784329 8.898173176899165" fill="red" stroke="none" /><path d="M 120.37134235888165 94.90015583598534 l 21.869406122933505 -5.474875500184342 a43.54429386590585,43.54429386590585 0 0,0 0.1757679931253722,0.7286718067353356 l -21.960406916319695 5.0976184617896" fill="red" stroke="none" /><path d="M 120.45610955862082 95.25157060432595 l 17.552567616990622 -4.074436920824454 a39.019258202567755,39.019258202567755 0 0,0 0.1462397445504223,0.6555641000872638 l -17.62010174854308 3.771694651187227" fill="red" stroke="none" /><path d="M 120.53481517161879 95.60439243477599 l 22.04050632685589 -4.717910316796791 a43.539800285306704,43.539800285306704 0 0,0 0.1505662358304472,0.7342144384195396 l -22.118451858601336 4.33782022221384" fill="red" stroke="none" /><path d="M 120.6074358757038 95.95851677861258 l 26.526159232357568 -5.202249717628349 a48.03147287413235,48.03147287413235 0 0,0 0.15213231656029255,0.8126969182829272 l -26.61177727282772 4.744874721882859" fill="red" stroke="none" /><path d="M 120.67395015179393 96.31383870115 l 20.026598930921068 -3.5707387018317926 a41.342439372325245,41.342439372325245 0 0,0 0.11888537875751241,0.7016682351422652 l -20.085096171198806 3.22548467837369" fill="red" stroke="none" /><path d="M 120.73433829027371 96.67025291283417 l 35.551551937224666 -5.709257505590542 a57.00706134094151,57.00706134094151 0 0,0 0.14725224333763806,0.9702083011034055 l -35.6445600740016 5.096450092095054" fill="red" stroke="none" /><path d="M 120.78858239683441 97.02765380044208 l 8.967856372043833 -1.2822218127622151 a30.059058487874466,30.059058487874466 0 0,0 0.06882665698340537,0.5128385386195661 l -8.988599028085076 1.1276649320779848" fill="red" stroke="none" /><path d="M 120.83666639777658 97.38593545837742 l 15.667627472564957 -1.9655826246637094 a36.7904422253923,36.7904422253923 0 0,0 0.07342259269085942,0.629039935753564 l -15.699140418259406 1.6955989505852926" fill="red" stroke="none" /><path d="M 120.87857604477298 97.74499172005257 l 22.41394065976307 -2.4208366349136066 a43.54429386590585,43.54429386590585 0 0,0 0.07407273033465979,0.7459022857982434 l -22.45229051577996 2.034658818410928" fill="red" stroke="none" /><path d="M 120.96714384426684 98.82574320788733 l 14.133132377430114 -0.7915206196557232 a35.15527942816049,35.15527942816049 0 0,0 0.02863714202661978,0.6044848069082711 l -14.144663127690231 0.5481247061244523" fill="red" stroke="none" /><path d="M 120.98425023603335 99.18683210126433 l 22.58126842446756 -0.8750544998733971 a43.59821683309558,43.59821683309558 0 0,0 0.022605271717513493,0.7501589171826356 l -22.59298539064072 0.48622543526576234" fill="red" stroke="none" /><line stroke="#e1ed5e" stroke-width="0.3" x1="184.98032266829074" x2="189.97916517819016" y1="98.17113171792111" y2="98.06355123074" /><path d="M 185.9800911702706 98.14961562048488 a86.0,86.0 0 0,1 -9.607161424134198,41.387399972396054" fill="none" id="id64" stroke="none" /><text fill="#e1ed5e" style="font-size:6.75px; font-family:Arial;" text-anchor="middle"><textPath startOffset="21.466115282336823" xlink:href="#id64">April</textPath></text><path d="M 120.99513854157772 99.54816195383933 l 23.38367249120798 -0.5032418752352938 a44.389087018544934,44.389087018544934 0 0,0 0.009864931103174011,0.7640497854763328 l -23.38887042942887 0.10065583169849827" fill="red" stroke="none" /><path d="M 120.99980553446 99.90962569577887 l 27.006169314287707 -0.11622316013601817 a48.00641940085592,48.00641940085592 0 0,0 -0.00355636746586508,0.8263745523232456 l -27.00416864953234 -0.3486608703909122" fill="red" stroke="none" /><path d="M 120.99824983174949 100.27111621757518 l 22.542414994127082 0.2910535086108497 a43.54429386590585,43.54429386590585 0 0,0 -0.016127847053077623,0.7493976793984003 l -22.534065084388995 -0.6790410037993648" fill="red" stroke="none" /><path d="M 120.9904718944345 100.63252640178507 l 22.902371509926148 0.6901395412343954 a43.912767475035665,43.912767475035665 0 0,0 -0.029270718345312124,0.7553471789793424 l -22.887098658729634 -1.0842639672277439" fill="red" stroke="none" /><path d="M 120.9764740272857 100.99374915477107 l 22.530833121943736 1.0673860793808865 a43.55610237189335,43.55610237189335 0 0,0 -0.04192513190725262,0.7486013939145745 l -22.50912163914895 -1.4550591896308842" fill="red" stroke="none" /><path d="M 120.92983693683757 101.71520430193887 l 48.14907494463781 3.9458262732121527 a69.310485021398,69.310485021398 0 0,0 -0.10768012171689677,1.1882411703061335 l -48.07402022664384 -4.774048832066857" fill="red" stroke="none" /><path d="M 120.89721153311464 102.0752229133903 l 22.45183290465806 2.2296064724962976 a43.562268188302426,43.562268188302426 0 0,0 -0.08052319011732582,0.7455447339960493 l -22.410127413039678 -2.6157475283771383" fill="red" stroke="none" /><path d="M 120.8583938346157 102.4346265915055 l 22.436907091286685 2.618873297182209 a43.589229671897286,43.589229671897286 0 0,0 -0.09340235944418493,0.7445087041713637 l -22.388503222595652 -3.0046997556409676" fill="red" stroke="none" /><path d="M 120.81339534386255 102.79330883721812 l 22.290522902146662 2.9915500849379444 a43.49037089871612,43.49037089871612 0 0,0 -0.10596314755584736,0.7411060072074761 l -22.235725703574214 -3.37480156412583" fill="red" stroke="none" /><path d="M 120.76222939487914 103.15116336523771 l 20.11003460065347 3.0521772542823173 a41.34033622217288,41.34033622217288 0 0,0 -0.11283597839854433,0.702629745198088 l -20.05451686789364 -3.3978862291736105" fill="red" stroke="none" /><path d="M 120.70491114924044 103.5080841355445 l 20.003425215154195 3.3892296445042978 a41.288516405135525,41.288516405135525 0 0,0 -0.12475729792583903,0.6997051808872209 l -19.942121474889166 -3.733053576124737" fill="red" stroke="none" /><path d="M 120.5718875245553 104.21870165774334 l 26.50427991127263 5.435264482440648 a48.05584878744651,48.05584878744651 0 0,0 -0.173151999686426,0.8089084972661233 l -26.40679387286176 -5.890686799122941" fill="red" stroke="none" /><path d="M 120.49622156327973 104.57218783832717 l 26.41556543701152 5.892643512891126 a48.06483594864479,48.06483594864479 0 0,0 -0.18708535662300216,0.8059588198532026 l -26.310219514457962 -6.346470990092893" fill="red" stroke="none" /><path d="M 119.54520255179757 107.68017299344265 l 29.372173506692082 11.541623737435318 a52.55841654778887,52.55841654778887 0 0,0 -0.33811927020844196,0.8391842996978257 l -29.169151622226245 -12.045507404975957" fill="red" stroke="none" /><path d="M 119.41010516605496 108.01547362559984 l 12.57226569279209 5.19176290970557 a34.60206847360913,34.60206847360913 0 0,0 -0.23207939967735175,0.5485671456908672 l -12.48103531192243 -5.407404581062601" fill="red" stroke="none" /><path d="M 119.26925614724726 108.34839909993367 l 20.711491083886937 8.973246927733996 a43.57177492675345,43.57177492675345 0 0,0 -0.30408724140943366,0.6856364526910418 l -20.55396275774623 -9.328431716917725" fill="red" stroke="none" /><path d="M 118.97047184881838 109.00673069616215 l 16.350868888810357 7.76300525908869 a39.10014265335235,39.10014265335235 0 0,0 -0.29389667541579867,0.6055142006763515 l -16.214818956779844 -8.043308415730317" fill="red" stroke="none" /><path d="M 118.81262510543309 109.33194174019688 l 8.550217344637636 4.241307615444687 a30.544365192582028,30.544365192582028 0 0,0 -0.23769527572884463,0.4689953291696618 l -8.475943399122523 -4.387857156317043" fill="red" stroke="none" /><path d="M 118.64920377521936 109.65438752849418 l 22.589453920368864 11.694190531291891 a46.43693221681076,46.43693221681076 0 0,0 -0.37359062970289686,0.7066926800931271 l -22.384810782441072 -12.081298226471151" fill="red" stroke="none" /><line stroke="#e1ed5e" stroke-width="0.3" x1="174.80103733775053" x2="179.2010983576182" y1="140.37084112569926" y2="142.7455964860345" /><path d="M 175.68104954172406 140.8457921977663 a86.0,86.0 0 0,1 -30.038265399797805,32.042727171017184" fill="none" id="id65" stroke="none" /><text fill="#e1ed5e" style="font-size:6.75px; font-family:Arial;" text-anchor="middle"><textPath startOffset="22.206326154141568" xlink:href="#id65">May</textPath></text><path d="M 118.48025628344425 109.97397251340804 l 19.81948170312894 10.696765385991686 a43.52182596291013,43.52182596291013 0 0,0 -0.36148729293701415,0.656204437762723 l -19.63241800074042 -11.036340342152213" fill="red" stroke="none" /><path d="M 117.94076556474637 110.91462005526583 l 13.463252104614591 8.190636062871025 a36.75898716119829,36.75898716119829 0 0,0 -0.33351842210474486,0.5377378910103298 l -13.320269042841883 -8.421170285246628" fill="red" stroke="none" /><path d="M 117.55443506779139 111.5257021239791 l 17.372880639486834 11.406499070628387 a41.78281027104137,41.78281027104137 0 0,0 -0.399915005318683,0.5978186717709713 l -17.17396252875743 -11.703854656605166" fill="red" stroke="none" /><path d="M 117.14729908036423 112.12312394758627 l 51.44189724109271 36.36937184275882 a84.0,84.0 0 0,0 -0.8448808304975888,1.1734655781954753 l -50.80823661821952 -37.24947102640542" fill="red" stroke="none" /><path d="M 116.93607887273984 112.41649034213515 l 11.013283244134744 8.074261230331388 a34.65599144079886,34.65599144079886 0 0,0 -0.3568556043135275,0.47806639848737364 l -10.872666373126124 -8.262640508328078" fill="red" stroke="none" /><path d="M 116.71984013943494 112.70617746262583 l 14.353780022698917 10.908099282465365 a39.02824536376605,39.02824536376605 0 0,0 -0.41108484811455126,0.5313825809832445 l -14.163888357366298 -11.153559857561863" fill="red" stroke="none" /><path d="M 116.27256486870786 113.27417163493432 l 24.61776753675418 20.08168190991134 a52.769614835948644,52.769614835948644 0 0,0 -0.5802245309379791,0.6989178253838706 l -24.268447005922656 -20.50246099240898" fill="red" stroke="none" /><path d="M 115.56566222782051 114.09645910891815 l 23.368477786816417 21.16278682771108 a52.52696148359486,52.52696148359486 0 0,0 -0.6126984710703296,0.6649631809291576 l -23.000732907750365 -21.561901263441573" fill="red" stroke="none" /><path d="M 115.32070863581623 114.36230785411682 l 16.450638217088272 15.421553668749972 a43.54878744650499,43.54878744650499 0 0,0 -0.5173874839663328,0.5424787084507979 l -16.182744181742976 -15.702439493783277" fill="red" stroke="none" /><path d="M 115.07121518719521 114.62390073753431 l 13.066731261292283 12.67890999867919 a39.20698285300011,39.20698285300011 0 0,0 -0.4741419456574401,0.4803032876795886 l -12.846548690579306 -12.901953780339444" fill="red" stroke="none" /><path d="M 114.81725581225074 114.88116024355365 l 12.7426286254142 12.79758552471657 a39.05970042796005,39.05970042796005 0 0,0 -0.48052740313098524,0.47029720157547 l -12.52045126990742 -13.015032829214613" fill="red" stroke="none" /><path d="M 114.55890576462653 115.13401014063108 l 15.641996970939333 16.259885502733663 a43.562268188302426,43.562268188302426 0 0,0 -0.5448688964630629,0.5152075506075867 l -15.359792240085463 -16.52672769008717" fill="red" stroke="none" /><path d="M 114.29624159901734 115.38237550388516 l 18.45561174754742 19.857747093068294 a48.109771754636235,48.109771754636235 0 0,0 -0.6114533217313692,0.5585481119832769 l -18.111058876349187 -20.172487971638155" fill="red" stroke="none" /><path d="M 114.0293411484842 115.62618273729858 l 15.106058058310811 16.825453252657585 a43.611697574893014,43.611697574893014 0 0,0 -0.5629182919238084,0.4967099432352382 l -14.814197413480414 -17.082986337665112" fill="red" stroke="none" /><path d="M 113.75828350139079 115.86535959552629 l 17.711091343302495 20.42353851498277 a48.033380884450786,48.033380884450786 0 0,0 -0.6293162551445969,0.5363169653588118 l -17.356909611580853 -20.725379870564527" fill="red" stroke="none" /><path d="M 112.92097659922987 116.55440617244103 l 22.146295840192156 28.373921563748794 a56.99358059914408,56.99358059914408 0 0,0 -0.7785629016278576,0.5969688333429756 l -21.654604210070804 -28.75092973891914" fill="red" stroke="none" /><path d="M 112.63410532772338 116.77436683061366 l 8.726724393271978 11.58651700339962 a35.50527817403709,35.50527817403709 0 0,0 -0.49135083175451866,0.3634895987926187 l -8.525988591098896 -11.73501655093201" fill="red" stroke="none" /><path d="M 112.34349029814194 116.9893568818739 l 8.187907259109844 11.269687517933468 a34.93009985734665,34.93009985734665 0 0,0 -0.48947494397746155,0.34922737616211175 l -7.992704987283498 -11.4089591559398" fill="red" stroke="none" /><path d="M 111.7513745106137 117.40417183066458 l 13.732009173137259 20.337556854620388 a45.53944365192582,45.53944365192582 0 0,0 -0.6534374560776656,0.43306271503285637 l -13.379897018319628 -20.570917590744564" fill="red" stroke="none" /><path d="M 111.45004920935366 117.60387380957326 l 9.873829881675169 15.18051600269192 a39.10912981455064,39.10912981455064 0 0,0 -0.5674887409810732,0.36219816429460416 l -9.611059338647165 -15.348228595810335" fill="red" stroke="none" /><line stroke="#e1ed5e" stroke-width="0.3" x1="143.8653032363475" x2="146.44561519142675" y1="172.8068346515853" y2="177.08958963109032" /><path d="M 144.38136562736335 173.6633856474863 a86.0,86.0 0 0,1 -40.68145358897372,12.25698825130547" fill="none" id="id66" stroke="none" /><text fill="#e1ed5e" style="font-size:6.75px; font-family:Arial;" text-anchor="middle"><textPath startOffset="21.466115282336833" xlink:href="#id66">June</textPath></text><path d="M 110.8373102113329 117.98757091392108 l 13.997290535436257 23.232448937894638 a48.123252496433665,48.123252496433665 0 0,0 -0.7132143965477988,0.42137963690060026 l -13.595308267860075 -23.469947147088988" fill="red" stroke="none" /><path d="M 110.5260780823613 118.17145234162733 l 4.549788386527064 7.854422338820371 a30.077032810271042,30.077032810271042 0 0,0 -0.4502263024409645,0.2556502447106891 l -4.4139133171649 -7.931575749325689" fill="red" stroke="none" /><path d="M 110.21172684928248 118.3499491758327 l 17.555138410941982 31.545682955486424 a57.10142653352354,57.10142653352354 0 0,0 -0.8629852472142207,0.47056836473709196 l -17.009530351859112 -31.843191971983284" fill="red" stroke="none" /><line stroke="#e1ed5e" stroke-width="0.3" x1="102.19456741930631" x2="102.32365962044197" y1="184.97166512339345" y2="189.96999836594603" /><path d="M 102.22038585953345 185.97133177190398 a86.0,86.0 0 0,1 -42.740103519485714,-10.115201625700543" fill="none" id="id67" stroke="none" /><text fill="#e1ed5e" style="font-size:6.75px; font-family:Arial;" text-anchor="middle"><textPath startOffset="22.20632615414155" xlink:href="#id67">July</textPath></text><line stroke="#e1ed5e" stroke-width="0.3" x1="58.666819895761336" x2="56.23545636021788" y1="174.27360380694188" y2="178.64263932499728" /><path d="M 58.180547188652646 175.14741091055294 a86.0,86.0 0 0,1 -31.652253787137756,-30.449443065178592" fill="none" id="id68" stroke="none" /><text fill="#e1ed5e" style="font-size:6.75px; font-family:Arial;" text-anchor="middle"><textPath startOffset="22.20632615414155" xlink:href="#id68">August</textPath></text><line stroke="#e1ed5e" stroke-width="0.3" x1="26.63291911575756" x2="22.317208475507996" y1="142.92168965132927" y2="145.44649492493687" /><path d="M 25.769776987707644 143.4266507060508 a86.0,86.0 0 0,1 -11.730757126820373,-40.83630448921669" fill="none" id="id69" stroke="none" /><text fill="#e1ed5e" style="font-size:6.75px; font-family:Arial;" text-anchor="middle"><textPath startOffset="21.46611528233685" xlink:href="#id69">September</textPath></text><line stroke="#e1ed5e" stroke-width="0.3" x1="15.007084014347285" x2="10.007500721073583" y1="101.09737516637583" y2="101.16192664675087" /><path d="M 14.007167355692545 101.11028546245083 a86.0,86.0 0 0,1 10.666146001902534,-42.60595125391555" fill="none" id="id70" stroke="none" /><text fill="#e1ed5e" style="font-size:6.75px; font-family:Arial;" text-anchor="middle"><textPath startOffset="22.20632615414155" xlink:href="#id70">October</textPath></text><line stroke="#e1ed5e" stroke-width="0.3" x1="26.266209847984243" x2="21.928928074336255" y1="57.711370442889674" y2="55.22380399835377" /><path d="M 25.398753493254645 57.213857153982495 a86.0,86.0 0 0,1 29.58750427330803,-30.492523968695096" fill="none" id="id71" stroke="none" /><text fill="#e1ed5e" style="font-size:6.75px; font-family:Arial;" text-anchor="middle"><textPath startOffset="21.46611528233685" xlink:href="#id71">November</textPath></text><line stroke="#e1ed5e" stroke-width="0.3" x1="56.762969772571076" x2="54.21961505331055" y1="26.818313649435495" y2="22.513508569990535" /><path d="M 56.25429882871897 25.957352633546506 a86.0,86.0 0 0,1 42.265352541879196,-11.944610805530505" fill="none" id="id72" stroke="none" /><text fill="#e1ed5e" style="font-size:6.75px; font-family:Arial;" text-anchor="middle"><textPath startOffset="22.20632615414155" xlink:href="#id72">December</textPath></text></svg>