<?xml version="1.0" encoding="utf-8" ?>
<svg baseProfile="full" height="200mm" version="1.1" viewBox="0,0,200,200" width="200mm" xmlns="http://www.w3.org/2000/svg" xmlns:ev="http://www.w3.org/2001/xml-events" xmlns:xlink="http://www.w3.org/1999/xlink"><defs /><rect fill="#1a1a1a" height="200" width="200" x="0" y="0" /><rect fill="#1a1a1a" height="200" width="180" x="10" y="0" /><text alignment-baseline="middle" fill="#e1ed5e" style="dominant-baseline: central; font-size:9.0px; font-family:Arial;" text-anchor="middle" x="100.0" y="100.0">2026</text><line stroke="#e1ed5e" stroke-width="0.3" x1="100.0" x2="100.0" y1="15.0" y2="10.0" /><path d="M 100.0 14.0 a86.0,86.0 0 0,1 42.46469731375804,11.215312516191453" fill="none" id="id61" stroke="none" /><text fill="#e1ed5e" style="font-size:6.75px; font-family:Arial;" text-anchor="middle"><textPath startOffset="22.20632615414155" xlink:href="#id61">January</textPath></text><path d="M 100.0 79.0 l 0.0 -14.54522897986866 a35.54522897986866,35.54522897986866 0 0,0 0.6118526860711756,0.0052664092378015325 l -0.25037220679864725 14.543073947239417" fill="red" stroke="none" /><path d="M 100.36148047927253 79.00311137660856 l 0.33171479929757075 -19.267924811869808 a40.27077998587346,40.27077998587346 0 0,0 0.6929898698486794,0.017897883818926676 l -0.6633313043411179 19.25936013590852" fill="red" stroke="none" /><path d="M 100.72285384407766 79.0124445844662 l 0.8548100478922948 -24.818811433154938 a45.83352776333801,45.83352776333801 0 0,0 0.7882475588413153,0.0339435980064926 l -1.2818984391229415 24.800420108624248" fill="red" stroke="none" /><path d="M 101.08401301168833 79.027996857942 l 0.4988081498949642 -9.65025878295364 a30.66314152583804,30.66314152583804 0 0,0 0.526877388777353,0.03178268293078706 l -0.6648475875119292 9.64024283064255" fill="red" stroke="none" /><path d="M 101.44485096284872 79.0497635885617 l 1.0003129895642602 -14.504467350379683 a35.53892015231259,35.53892015231259 0 0,0 0.6099321658267551,0.047342474922192346 l -1.2498353447533566 14.485099613269025" fill="red" stroke="none" /><path d="M 102.16513564639614 79.11191278185805 l 1.8796145433483415 -18.133530147775755 a39.230684749944494,39.230684749944494 0 0,0 0.6710937241092052,0.07540519926795002 l -2.1914749709672723 18.098488995037204" fill="red" stroke="none" /><path d="M 102.52436894288641 79.15227682838746 l 2.9607049465354116 -24.451242474730318 a45.62984028243982,45.62984028243982 0 0,0 0.7789345562759076,0.10112806097606532 l -3.3811542313191656 24.396656090590117" fill="red" stroke="none" /><path d="M 103.59715602781102 79.31037775812273 l 4.5442966219829115 -26.137253913080627 a47.52935494702828,47.52935494702828 0 0,0 0.8048414528569158,0.1470796310925013 l -4.993533195942728 26.05515880063739" fill="red" stroke="none" /><path d="M 103.95276090670814 79.375362276772 l 5.036090047640677 -26.27721110018877 a47.755448532435956,47.755448532435956 0 0,0 0.806006432898056,0.16167730792450877 l -5.487662890005859 26.186629836187052" fill="red" stroke="none" /><path d="M 104.307194497241 79.44645832069477 l 3.1405348188558957 -14.986347455637587 a36.31187673048413,36.31187673048413 0 0,0 0.6106573079528892,0.13346603535238225 l -3.3980348509623126 14.930067922189334" fill="red" stroke="none" /><path d="M 105.01212808612495 79.60689891045804 l 5.195040713286254 -21.137327021552814 a42.76637410385038,42.76637410385038 0 0,0 0.7133657481785579,0.18185281296167422 l -5.558115350149836 21.044771212422273" fill="red" stroke="none" /><path d="M 105.36241919743992 79.69619591428918 l 2.638498330811245 -9.99018376162053 a31.33273657036897,31.33273657036897 0 0,0 0.5202757799278612,0.1422110241857314 l -2.810071999962817 9.943286196608506" fill="red" stroke="none" /><path d="M 105.71112130821622 79.79150937346287 l 4.536338339520979 -16.051585295715462 a37.680280454363974,37.680280454363974 0 0,0 0.6226393293613832,0.18176549413518975 l -4.811967886605789 15.971121472661569" fill="red" stroke="none" /><path d="M 106.0581310904928 79.89281104454417 l 5.0996309124262655 -16.925887014917272 a38.677440048964066,38.677440048964066 0 0,0 0.6358103833812699,0.19754938108291822 l -5.390226668518253 16.835597498951834" fill="red" stroke="none" /><path d="M 107.08798089147638 80.2323363322302 l 10.247084597438535 -28.578085211959007 a51.359672217088445,51.359672217088445 0 0,0 0.8296242170744554,0.3055576006353012 l -10.737491140285567 28.39746434351738" fill="red" stroke="none" /><path d="M 107.4271985657038 80.35727306442388 l 6.848401533859336 -18.111981265177377 a40.36348287160921,40.36348287160921 0 0,0 0.6477701546180898,0.2513247562786594 l -7.159154853477093 17.99141380500817" fill="red" stroke="none" /><path d="M 107.76421540070413 80.48803036053334 l 5.37413335180364 -13.50554066149789 a35.53550610891623,35.53550610891623 0 0,0 0.5663955760473647,0.23104697681568695 l -5.605812797439392 13.411032798498622" fill="red" stroke="none" /><path d="M 108.76106565485865 80.91482961587045 l 14.935989765826404 -32.536670853314284 a56.801099710787966,56.801099710787966 0 0,0 0.8850741641673299,0.4155541876254207 l -15.493842141293333 32.274751683048855" fill="red" stroke="none" /><path d="M 109.08828744355905 81.06846463323043 l 12.134574695874553 -25.277163760755055 a49.038953454752686,49.038953454752686 0 0,0 0.7578356872288237,0.3718666804789295 l -12.56788165011381 25.064541920141295" fill="red" stroke="none" /><path d="M 109.41281617654863 81.2277094730956 l 15.625549395845594 -31.16254980439474 a55.860612505138135,55.860612505138135 0 0,0 0.8558364871617432,0.4383926895937509 l -16.159646370596093 30.88896458948849" fill="red" stroke="none" /><path d="M 109.73455568895987 81.39251694778311 l 11.180726212878955 -21.371820159554904 a45.11977063696328,45.11977063696328 0 0,0 0.6850791603382,0.36594556165887365 l -11.546950419745468 21.176195871394278" fill="red" stroke="none" /><path d="M 110.05341064243156 81.56283822128135 l 10.915042381238356 -20.017326394198573 a43.79981373073272,43.79981373073272 0 0,0 0.6588240981271611,0.3666348973140488 l -11.257990568437553 19.826476099324346" fill="red" stroke="none" /><path d="M 110.36928655335952 81.73862282372117 l 4.820643218719067 -8.489647151353779 a30.7628228395619,30.7628228395619 0 0,0 0.45822435727643757,0.2654331240702404 l -4.966064308460833 8.40540986989349" fill="red" stroke="none" /><line stroke="#e1ed5e" stroke-width="0.3" x1="143.23703022742887" x2="145.7803849466894" y1="26.81831364943548" y2="22.513508569990506" /><path d="M 143.74570117128098 25.957352633546492 a86.0,86.0 0 0,1 28.547481713284135,27.462654790039103" fill="none" id="id62" stroke="none" /><text fill="#e1ed5e" style="font-size:6.75px; font-family:Arial;" text-anchor="middle"><textPath startOffset="19.985693538727396" xlink:href="#id62">February</textPath></text><path d="M 110.68208982089419 81.91981866633111 l 20.820672306625042 -35.24043863180763 a61.93151487866119,61.93151487866119 0 0,0 0.9131593477638233,0.550168289618024 l -21.424193720606503 34.87682373273098" fill="red" stroke="none" /><path d="M 110.99172775467656 82.1063720568725 l 16.361729828415285 -26.635549259402985 a52.259537541814936,52.259537541814936 0 0,0 0.7624438766045138,0.47744228558301094 l -16.81779285739206 26.349962632497032" fill="red" stroke="none" /><path d="M 111.2981086023043 82.29822771554956 l 13.827253333980149 -21.66441290780331 a46.70096732424404,46.70096732424404 0 0,0 0.6739015727150867,0.43832432868567756 l -14.198121932479514 21.423189654958104" fill="red" stroke="none" /><path d="M 111.60114157652 82.49532879139004 l 9.327533257900052 -14.074080709210051 a37.884389964893316,37.884389964893316 0 0,0 0.5404754947025692,0.3649314666537962 l -9.568413447009164 13.911437330257586" fill="red" stroke="none" /><path d="M 111.90073688211348 82.69761687909136 l 14.51855454648575 -21.10840661494353 a46.61939218523878,46.61939218523878 0 0,0 0.6572643008374521,0.46045564573100256 l -14.879749986906853 20.85536612644859" fill="red" stroke="none" /><path d="M 112.19680574252982 82.90503203632743 l 14.255463791539347 -19.98037043206304 a45.54451976540483,45.54451976540483 0 0,0 0.6342718152290517,0.4608254480790616 l -14.597280923122186 19.732025749167303" fill="red" stroke="none" /><path d="M 112.48926042617603 83.11751280151076 l 11.486618908224205 -15.527156136930284 a40.31411379389139,40.31411379389139 0 0,0 0.554326448371827,0.4175071885211839 l -11.752191510354415 15.327132358903253" fill="red" stroke="none" /><path d="M 112.77801427241765 83.33499621200491 l 14.63111345549962 -19.081803788935204 a45.04547185619621,45.04547185619621 0 0,0 0.6112615722141918,0.47709935278357557 l -14.957407582873241 18.827126046928402" fill="red" stroke="none" /><path d="M 113.06298171725822 83.55741782278167 l 17.951277031211273 -22.59555698388095 a49.85840505750629,49.85840505750629 0 0,0 0.6673822959361907,0.5396434033193553 l -18.337562725711955 22.283207483297463" fill="red" stroke="none" /><path d="M 113.34407831869373 83.78471172551755 l 16.7642035028208 -20.371312727497408 a47.38235966181735,47.38235966181735 0 0,0 0.6253173267316677,0.5236852779741707 l -17.112378366511585 20.07972629212942" fill="red" stroke="none" /><path d="M 113.6212207817346 84.01681056812373 l 15.605941274952547 -18.31206759344069 a45.05986746896184,45.05986746896184 0 0,0 0.5860061541870673,0.5081787623104914 l -15.918841227786379 18.04072383771053" fill="red" stroke="none" /><path d="M 113.89432698308785 84.25364557470407 l 12.493147234012644 -14.158406123133414 a39.88224541092239,39.88224541092239 0 0,0 0.5108517050256367,0.4586477047258998 l -12.735009926634271 13.941259409638215" fill="red" stroke="none" /><path d="M 114.16331599549186 84.49514656593476 l 19.796710475532866 -21.67183832497 a50.35265442912636,50.35265442912636 0 0,0 0.6349040915635785,0.5900741587607827 l -20.166822450891292 21.32785958013458" fill="red" stroke="none" /><path d="M 114.42810811169701 84.74124197986012 l 13.263221631508202 -14.026807109838387 a40.3045167187143,40.3045167187143 0 0,0 0.5000000934918337,0.4809996937895892 l -13.502704968612454 13.796424329286497" fill="red" stroke="none" /><path d="M 114.68862486808459 84.99185889309783 l 16.82551827185042 -17.191517564681384 a45.0550689313733,45.0550689313733 0 0,0 0.5495950324386365,0.5472348967086189 l -17.11894910445638 16.899346817322648" fill="red" stroke="none" /><path d="M 114.94478906791727 85.2469230424477 l 22.224241127429107 -21.939148032542548 a52.22888262624724,52.22888262624724 0 0,0 0.6260893439943926,0.645240103793291 l -22.598594735126607 21.553343733199142" fill="red" stroke="none" /><path d="M 115.19652480421416 85.50635884689758 l 23.18582240021383 -22.113410403875594 a53.04036953695277,53.04036953695277 0 0,0 0.6244434573474814,0.6661127422373339 l -23.563033179531775 21.711028244760207" fill="red" stroke="none" /><path d="M 115.9244219780498 86.31012108654704 l 11.102893344218105 -9.544915707511482 a35.64170947931225,35.64170947931225 0 0,0 0.3959444066047216,0.4686732901253101 l -11.265548364309945 9.352383467757065" fill="red" stroke="none" /><path d="M 116.15771136456269 86.58626213691792 l 11.206040473320243 -9.302981468147678 a35.56436772696949,35.56436772696949 0 0,0 0.3869767454267442,0.474387733247758 l -11.364515710823397 9.10870956529182" fill="red" stroke="none" /><path d="M 116.82858285166822 87.43820079747576 l 11.582228246452425 -8.645625530810346 a35.45319521669586,35.45319521669586 0 0,0 0.3608415868409986,0.4921875189291905 l -11.72933244580705 8.444975568209662" fill="red" stroke="none" /><path d="M 117.04232023915458 87.72973835380427 l 47.96876396661729 -34.53692199508853 a80.10838601569046,80.10838601569046 0 0,0 0.7960766290168431,1.1259939358582376 l -48.556153215438016 33.706101558898496" fill="red" stroke="none" /><path d="M 117.45458315368197 88.32363383020206 l 12.115350287706601 -8.10464878989608 a35.576249332437904,35.576249332437904 0 0,0 0.3361165509000504,0.5119285666518605 l -12.253063473964577 7.894902159266547" fill="red" stroke="none" /><line stroke="#e1ed5e" stroke-width="0.3" x1="172.23445277983987" x2="176.4835382374775" y1="55.19839476539836" y2="52.563006222186495" /><path d="M 173.08426987136738 54.67131705675599 a86.0,86.0 0 0,1 12.851231095245387,41.99856678651699" fill="none" id="id63" stroke="none" /><text fill="#e1ed5e" style="font-size:6.75px; font-family:Arial;" text-anchor="middle"><textPath startOffset="22.20632615414155" xlink:href="#id63">March</textPath></text><path d="M 117.84615892207809 88.93136811851018 l 16.466476440098557 -10.212918471503365 a40.376494782542466,40.376494782542466 0 0,0 0.3612431185818303,0.5937887044659642 l -16.63983535696661 9.927961993830317" fill="red" stroke="none" /><path d="M 118.03404312379186 89.2402003453031 l 28.98578551285367 -17.294027901090253 a54.752913397821615,54.752913397821615 0 0,0 0.4759340302541112,0.8135255339868847 l -29.279179217578108 16.792522954749476" fill="red" stroke="none" /><path d="M 118.21658344932153 89.55222093294921 l 17.411829210567134 -9.98622739831064 a41.072282732881405,41.072282732881405 0 0,0 0.3464590971812709,0.6163120749405409 l -17.581145949040838 9.685031813435305" fill="red" stroke="none" /><path d="M 118.3937258080291 89.86733742301442 l 21.078041342204113 -11.611387651058584 a45.06466600655038,45.06466600655038 0 0,0 0.3684399126071271,0.6826632017359515 l -21.274789354029704 11.246843465990175" fill="red" stroke="none" /><path d="M 118.56541770881063 90.18545643968196 l 12.879413854204227 -6.808657380408012 a35.568360118820934,35.568360118820934 0 0,0 0.2814821871291411,0.5437339915528001 l -12.994705474493484 6.585950666594867" fill="red" stroke="none" /><path d="M 118.73160827565052 90.50648371742162 l 12.98186485643568 -6.579442810204948 a35.553964506055294,35.553964506055294 0 0,0 0.27197087608131953,0.5482766902921274 l -13.093195745470407 6.355006531413871" fill="red" stroke="none" /><path d="M 118.89224826269711 90.83032412892265 l 22.106909137010867 -10.72996651743173 a45.57331099093609,45.57331099093609 0 0,0 0.33646516422124173,0.7086814451648811 l -22.288332495073867 10.347842656626309" fill="red" stroke="none" /><path d="M 119.196687751892 91.48605970444005 l 21.9894117678958 -9.752543842251963 a45.0550689313733,45.0550689313733 0 0,0 0.30832533210079743,0.7116573764402905 l -22.154027809839278 9.372587321225069" fill="red" stroke="none" /><path d="M 119.34039704204932 91.81776055985345 l 45.43056171656648 -19.220067357309738 a70.32896641023689,70.32896641023689 0 0,0 0.4620891499200843,1.118985529114077 l -45.754672553372764 18.43520725774236" fill="red" stroke="none" /><path d="M 119.47837535516314 92.15188598940014 l 27.136793634038295 -10.933799479616257 a50.25668367735547,50.25668367735547 0 0,0 0.3163932258905455,0.8051862492325732 l -27.320980409810538 10.4650642254879" fill="red" stroke="none" /><path d="M 119.61058180528143 92.48833698450437 l 13.501412821840113 -5.171598902967861 a35.45799375428441,35.45799375428441 0 0,0 0.21341560530855141,0.5718477186635494 l -13.58843301565029 4.938428047274978" fill="red" stroke="none" /><path d="M 119.7369772167798 92.82701384747503 l 59.21093165033941 -21.518958457574904 a84.0,84.0 0 0,0 0.4821876767607618,1.3632094942935418 l -59.57257240790998 20.496551336854747" fill="red" stroke="none" /><path d="M 120.28053869075195 94.5502522615342 l 37.7867725990688 -10.153989578669384 a60.127275496991395,60.127275496991395 0 0,0 0.259989389036747,1.0018451723050623 l -37.95595831997585 9.50204798081547" fill="red" stroke="none" /><path d="M 120.37134235888165 94.90015583598534 l 23.3535740607455 -5.846428099061959 a45.07426308172747,45.07426308172747 0 0,0 0.18194376484500788,0.7542743675708687 l -23.45075062585133 5.4435684998316844" fill="red" stroke="none" /><path d="M 120.45610955862082 95.25157060432595 l 18.743773173144078 -4.3509487112467715 a40.24213573006322,40.24213573006322 0 0,0 0.15082295052294434,0.6761097137857003 l -18.815890510669057 4.027660827911108" fill="red" stroke="none" /><path d="M 120.53481517161879 95.60439243477599 l 23.536285985415457 -5.038091449576586 a45.069464544138924,45.069464544138924 0 0,0 0.15585601180616437,0.7600092647028368 l -23.619521293136618 4.632206528710338" fill="red" stroke="none" /><path d="M 120.6074358757038 95.95851677861258 l 28.32635786713786 -5.5553005591552616 a49.865964635184355,49.865964635184355 0 0,0 0.15794278758313549,0.8437366868265505 l -28.417786378630858 5.066885794866148" fill="red" stroke="none" /><path d="M 120.67395015179393 96.31383870115 l 21.385704700397092 -3.813066996700567 a42.722979663340695,42.722979663340695 0 0,0 0.12285529581802444,0.7250989103575268 l -21.44817185773534 3.444382298027202" fill="red" stroke="none" /><path d="M 120.73433829027371 96.67025291283417 l 37.96425913320815 -6.09671644667373 a59.45068169700663,59.45068169700663 0 0,0 0.1535642434799377,1.0117964955907603 l -38.06357927012739 5.442320838690888" fill="red" stroke="none" /><path d="M 120.78858239683441 97.02765380044208 l 9.576460228201277 -1.3692398366156036 a30.6738517785056,30.6738517785056 0 0,0 0.07023435799130744,0.5233275462126539 l -9.59861058525042 1.2041939483382853" fill="red" stroke="none" /><path d="M 120.83666639777658 97.38593545837742 l 16.730911506235106 -2.0989769516174275 a37.862061086145175,37.862061086145175 0 0,0 0.07556121974651892,0.6473623863289215 l -16.764563078985212 1.8106708269636531" fill="red" stroke="none" /><path d="M 120.87857604477298 97.74499172005257 l 23.935063451129427 -2.585126789663246 a45.07426308172747,45.07426308172747 0 0,0 0.0766753445254624,0.7721102555220521 l -23.97601592133712 2.172741003436759" fill="red" stroke="none" /><path d="M 120.96714384426684 98.82574320788733 l 15.092277852964443 -0.8452371915281619 a36.11592791399269,36.11592791399269 0 0,0 0.02941967675750283,0.6210028782736731 l -15.104591137955444 0.5853232066314891" fill="red" stroke="none" /><path d="M 120.98425023603335 99.18683210126433 l 24.11374691987472 -0.9344401011672655 a45.13184553279001,45.13184553279001 0 0,0 0.023400443997221337,0.7765468139428918 l -24.12625905832759 0.5192231397993746" fill="red" stroke="none" /><line stroke="#e1ed5e" stroke-width="0.3" x1="184.98032266829074" x2="189.97916517819016" y1="98.17113171792111" y2="98.06355123074" /><path d="M 185.9800911702706 98.14961562048488 a86.0,86.0 0 0,1 -9.607161424134198,41.387399972396054" fill="none" id="id64" stroke="none" /><text fill="#e1ed5e" style="font-size:6.75px; font-family:Arial;" text-anchor="middle"><textPath startOffset="21.466115282336823" xlink:href="#id64">April</textPath></text><path d="M 120.99513854157772 99.54816195383933 l 24.970606163968004 -0.537394401005318 a45.97638814837383,45.97638814837383 0 0,0 0.010217689344838464,0.7913713000464666 l -24.976156860430557 0.10748684289838875" fill="red" stroke="none" /><path d="M 120.99980553446 99.90962569577887 l 28.838943848451038 -0.1241106485723951 a49.83921090715211,49.83921090715211 0 0,0 -0.003692142642727977,0.8579239217496678 l -28.83680740851881 -0.37232275138095744" fill="red" stroke="none" /><path d="M 120.99824983174949 100.27111621757518 l 24.072256700256048 0.31080586417275596 a45.07426308172747,45.07426308172747 0 0,0 -0.01669451394138852,0.7757284630234262 l -24.06334012362965 -0.725124142986297" fill="red" stroke="none" /><path d="M 120.9904718944345 100.63252640178507 l 24.456641676377835 0.7369758830151741 a45.46774316398812,45.46774316398812 0 0,0 -0.030307210874529512,0.7820944456074232 l -24.4403323326521 -1.1578475756366036" fill="red" stroke="none" /><path d="M 120.9764740272857 100.99374915477107 l 24.059888823950885 1.1398242693975191 a45.08687297234708,45.08687297234708 0 0,0 -0.04339858237340775,0.7749108417958106 l -24.03670389068995 -1.553806827528753" fill="red" stroke="none" /><path d="M 120.92983693683757 101.71520430193887 l 51.416713437719736 4.213609897968954 a72.58907761444132,72.58907761444132 0 0,0 -0.11277371252599339,1.2444485204424385 l -51.33656512891666 -5.098039806959964" fill="red" stroke="none" /><path d="M 120.89721153311464 102.0752229133903 l 23.97552725442196 2.380918786228813 a45.09345723208165,45.09345723208165 0 0,0 -0.08335353462429318,0.7717502089590951 l -23.930991418296614 -2.7932653170726995" fill="red" stroke="none" /><path d="M 120.8583938346157 102.4346265915055 l 23.959588500254352 2.796603216276531 a45.12224845761292,45.12224845761292 0 0,0 -0.09668728952291983,0.7706928289704158 l -23.907899701484585 -3.208613799534342" fill="red" stroke="none" /><path d="M 120.81339534386255 102.79330883721812 l 23.803269943491213 3.1945717260134034 a45.016680630664936,45.016680630664936 0 0,0 -0.10968196116907393,0.7671153809569167 l -23.744753931305535 -3.6038325789507293" fill="red" stroke="none" /><path d="M 120.76222939487914 103.15116336523771 l 21.47480273449323 3.259313360121722 a42.72073378283675,42.72073378283675 0 0,0 -0.11660369108717338,0.7260912957067437 l -21.415517289044768 -3.6284838855216703" fill="red" stroke="none" /><path d="M 120.70491114924044 103.5080841355445 l 21.360958299677186 3.6192398214601456 a42.665397212278165,42.665397212278165 0 0,0 -0.12891767819670047,0.7230388028747151 l -21.295494179141297 -3.986397375068079" fill="red" stroke="none" /><path d="M 120.5718875245553 104.21870165774334 l 28.30299370523591 5.804128878347009 a49.891994820626095,49.891994820626095 0 0,0 -0.1797678927646562,0.8398157471833998 l -28.19889177374681 -6.290458444946578" fill="red" stroke="none" /><path d="M 120.49622156327973 104.57218783832717 l 28.208258620374853 6.292547951156491 a49.90159189580318,49.90159189580318 0 0,0 -0.19423466098702205,0.8367578359387212 l -28.09576339345728 -6.777174444443777" fill="red" stroke="none" /><path d="M 119.54520255179757 107.68017299344265 l 31.365516990160938 12.324896397200332 a54.70012948434763,54.70012948434763 0 0,0 -0.35189735681511863,0.8733803807229388 l -31.14871701908843 -12.862976145766083" fill="red" stroke="none" /><path d="M 119.41010516605496 108.01547362559984 l 13.425482901435378 5.544102063681323 a35.52517328052403,35.52517328052403 0 0,0 -0.23827075235881015,0.563201674533819 l -13.32806116788426 -5.774378263881306" fill="red" stroke="none" /><path d="M 119.26925614724726 108.34839909993367 l 22.11707708097303 9.582216614123745 a45.10360914563816,45.10360914563816 0 0,0 -0.31477790624235086,0.7097410796361788 l -21.948858089999405 -9.961506030252611" fill="red" stroke="none" /><line stroke="#e1ed5e" stroke-width="0.3" x1="174.80103733775053" x2="179.2010983576182" y1="140.37084112569926" y2="142.7455964860345" /><path d="M 175.68104954172406 140.8457921977663 a86.0,86.0 0 0,1 -30.038265399797805,32.042727171017184" fill="none" id="id65" stroke="none" /><text fill="#e1ed5e" style="font-size:6.75px; font-family:Arial;" text-anchor="middle"><textPath startOffset="22.206326154141568" xlink:href="#id65">May</textPath></text><line stroke="#e1ed5e" stroke-width="0.3" x1="143.8653032363475" x2="146.44561519142675" y1="172.8068346515853" y2="177.08958963109032" /><path d="M 144.38136562736335 173.6633856474863 a86.0,86.0 0 0,1 -40.68145358897372,12.25698825130547" fill="none" id="id66" stroke="none" /><text fill="#e1ed5e" style="font-size:6.75px; font-family:Arial;" text-anchor="middle"><textPath startOffset="21.466115282336833" xlink:href="#id66">June</textPath></text><line stroke="#e1ed5e" stroke-width="0.3" x1="102.19456741930631" x2="102.32365962044197" y1="184.97166512339345" y2="189.96999836594603" /><path d="M 102.22038585953345 185.97133177190398 a86.0,86.0 0 0,1 -42.740103519485714,-10.115201625700543" fill="none" id="id67" stroke="none" /><text fill="#e1ed5e" style="font-size:6.75px; font-family:Arial;" text-anchor="middle"><textPath startOffset="22.20632615414155" xlink:href="#id67">July</textPath></text><line stroke="#e1ed5e" stroke-width="0.3" x1="58.666819895761336" x2="56.23545636021788" y1="174.27360380694188" y2="178.64263932499728" /><path d="M 58.180547188652646 175.14741091055294 a86.0,86.0 0 0,1 -31.652253787137756,-30.449443065178592" fill="none" id="id68" stroke="none" /><text fill="#e1ed5e" style="font-size:6.75px; font-family:Arial;" text-anchor="middle"><textPath startOffset="22.20632615414155" xlink:href="#id68">August</textPath></text><line stroke="#e1ed5e" stroke-width="0.3" x1="26.63291911575756" x2="22.317208475507996" y1="142.92168965132927" y2="145.44649492493687" /><path d="M 25.769776987707644 143.4266507060508 a86.0,86.0 0 0,1 -11.730757126820373,-40.83630448921669" fill="none" id="id69" stroke="none" /><text fill="#e1ed5e" style="font-size:6.75px; font-family:Arial;" text-anchor="middle"><textPath startOffset="21.46611528233685" xlink:href="#id69">September</textPath></text><line stroke="#e1ed5e" stroke-width="0.3" x1="15.007084014347285" x2="10.007500721073583" y1="101.09737516637583" y2="101.16192664675087" /><path d="M 14.007167355692545 101.11028546245083 a86.0,86.0 0 0,1 10.666146001902534,-42.60595125391555" fill="none" id="id70" stroke="none" /><text fill="#e1ed5e" style="font-size:6.75px; font-family:Arial;" text-anchor="middle"><textPath startOffset="22.20632615414155" xlink:href="#id70">October</textPath></text><line stroke="#e1ed5e" stroke-width="0.3" x1="26.266209847984243" x2="21.928928074336255" y1="57.711370442889674" y2="55.22380399835377" /><path d="M 25.398753493254645 57.213857153982495 a86.0,86.0 0 0,1 29.58750427330803,-30.492523968695096" fill="none" id="id71" stroke="none" /><text fill="#e1ed5e" style="font-size:6.75px; font-family:Arial;" text-anchor="middle"><textPath startOffset="21.46611528233685" xlink:href="#id71">November</textPath></text><line stroke="#e1ed5e" stroke-width="0.3" x1="56.762969772571076" x2="54.21961505331055" y1="26.818313649435495" y2="22.513508569990535" /><path d="M 56.25429882871897 25.957352633546506 a86.0,86.0 0 0,1 42.265352541879196,-11.944610805530505" fill="none" id="id72" stroke="none" /><text fill="#e1ed5e" style="font-size:6.75px; font-family:Arial;" text-anchor="middle"><textPath startOffset="22.20632615414155" xlink:href="#id72">December</textPath></text></svg>